<svg version="1.0" xmlns="http://www.w3.org/2000/svg" width="933.333" height="933.333" viewBox="0 0 700 700"><path d="M382.5 84c-.3.6.1.7.9.4 1.8-.7 2.1-1.4.7-1.4-.6 0-1.3.4-1.6 1zm-20.9.8c-.6 1 1.6 3.6 3.4 4 1 .1.8-.3-.5-1.4-1.1-.8-1.9-2-1.7-2.5.3-1.1-.5-1.2-1.2-.1zm5.8 0c.3.5 0 1.3-.6 1.5-.8.3-.6.6.5.6 1.9.1 2.3-1.4.5-2.5-.6-.4-.8-.3-.4.4z"/><path d="M353.5 86.1c-.4.5-.4 2.2-.1 3.7.3 1.5.3 2.1 0 1.4-.3-.6-1-.9-1.6-.6-.6.4-.8-.2-.3-1.7.4-1.7.3-2-.3-1-.5.7-1.5 1-2.2.6-.9-.6-.9-.3-.2 1.2.9 1.5.8 2-.3 2-.8 0-1.2-.4-.9-.8.5-.9-3.1-3.1-3.9-2.3-.3.3-1.3.7-2.3.8-1 .2-2.1 1.4-2.4 2.7l-.6 2.4-.6-2.4c-.5-1.7-1.2-2.2-2.3-1.7-.9.3-2.5.1-3.5-.4-1.4-.8-2.1-.6-2.8.6-.5.9-1.3 1.7-1.8 1.7-.5.1-.8.5-.7.9.2.5-.2.8-.8.8-.8 0-.7.6.2 1.7 1.3 1.6 1.2 1.7-.3.4-1-.7-1.6-1.7-1.3-2.1.3-.4-.3-1.4-1.3-2.1-1.5-1.2-1.6-1.2-.5.2 1.8 2.3-.4 5.1-3.4 4.3-1.3-.4-2.3-1-2.3-1.5s-.6-.9-1.2-.9c-.7.1-.1 1.1 1.4 2.3 2.4 2 2.5 2.3.9 2.3-1.1 0-1.7-.5-1.4-1 .4-.5-.1-.7-1-.3-.9.3-1.6.3-1.4-.1.1-.4-.2-.7-.8-.7-.5 0-.9.5-.7 1.2.2.8-.3 1-1.3.7-1-.4-1.4-.1-1.2.7.2.8.2 1.1 0 .6-.3-.4-1.1-.7-1.8-.7s-1.5-.6-1.8-1.3c-.3-.7-.8-.5-1.3.8-1 2.6-3.5 4.4-5.1 3.8-.8-.3-1.1 0-.8.9.3.8-.1 2.1-1 2.8-1 .8-1.5.9-1.5.1 0-.6.5-1.1 1-1.1 1.7 0 1.1-1.5-1.2-2.9-2.1-1.3-2.2-1.3-.9.2 1.5 1.9.8 2.2-1.8.8-1.3-.7-1.8-.6-1.8.4 0 .7.6 1.1 1.3.8.6-.2 1.5.1 2 .8.4.8.3 1-.4.5-.6-.4-2.1-.2-3.3.4-1.9 1.1-2 1-1.5-1.2.3-1.2.3-1.7 0-1.1-.3.7-1 1.3-1.5 1.3-.6 0-.8-.4-.4-.9.3-.5.1-1.2-.4-1.5-1.2-.8-.9 1.3.6 3.9 1 1.8.9 2.1-.8 2.2-1 .1-1.9-.3-1.9-.8 0-.6.6-.7 1.3-.3.6.4.8.3.4-.1-1.5-1.7-3.6-1.4-3 .3.5 1.4.2 1.3-1.7-.3l-2.3-2 1.9 3 1.8 3-2.1-1.8c-1.6-1.4-2.3-1.5-2.9-.6-.4.8-.3 1 .4.5.7-.4 1.2-.2 1.2.3v1.6c0 .3-.3.5-.6.4-.4 0-1.1.5-1.6 1.3-.7 1-.8.9-.4-.5.3-.9.1-1.7-.5-1.7s-.8-.4-.5-.9c.7-1.1-2-.8-3.1.3-.4.4-.2.6.6.4 2.1-.5 2.1 2.7-.1 4.1-1.1.7-1.7.8-1.4.2.5-.7-.4-1-2.5-.8-2.2.2-3.3.8-3.5 2-.1.9.2 1.5.7 1.1.5-.3.7-1 .4-1.5-.4-.5-.1-.9.4-.9.6 0 1.1.6 1.1 1.2 0 .9.4.8 1-.2.5-.8 1-1.1 1-.5 0 .5-.5 1.7-1 2.5-.7 1.1-1 1.1-1 .2 0-.7-.5-1-1-.7-.8.5-.7 1.2.2 2.3 1.2 1.5 1.1 1.6-.6.2-1-.8-2.2-2.3-2.7-3.5-.7-1.4-.7-1-.3 1.4.6 3.3.5 3.4-1 1.8-1-.9-2.3-1.7-2.9-1.7-.7 0-.7.4.2.9.8.5 1.6 1.7 1.7 2.5.1.9-.2 1.4-.7 1-.5-.3-.9 0-.9.6 0 .7-.5.6-1.4-.2-.8-.7-1.2-1.6-1-1.9.2-.4-.4-1.3-1.4-2-1.5-1.3-1.6-1.2-.3.3.7 1 .9 1.8.3 1.8-.5 0-1.3.7-1.6 1.6-.4.9-.2 1.3.5.8.8-.4.8 0 0 1.5-2.2 4-6.3 5-9 2.1-.8-.9-.7-.5.3 1.2 1.4 2.4 1.4 2.7-.1 4-1.2.9-1.5.9-.9 0 .4-.7.2-1.2-.4-1.2-.6 0-.8-.5-.5-1 .3-.6.2-1-.3-1-.6 0-1.3.7-1.6 1.6-.4 1-.2 1.3.7.8.6-.4.9-.4.5.1-.4.4-.3 1.7.3 2.9 1 2 .9 2-.5.2-1.7-2.1-4.6-1.5-4.6.9 0 .8-.5 1.5-1.1 1.5-.5 0-.7-.5-.3-1.2.4-.7.3-.8-.5-.4-.6.4-.9 1.6-.6 2.6.3 1 .1 2.1-.5 2.5-1 .6-5.5 1.7-7.7 1.8-.6 0-.9.5-.7 1.1.2.6-.5 1.7-1.7 2.5-1.9 1.1-2.1 1.1-1.6-.3.3-.8.3-1.8-.2-2-.4-.3-.8 0-.8.7s-.4 2.1-.8 3.2c-.5 1.6-.5 1.7.4.5.6-.8 1.1-1.1 1.1-.6 0 .5.6.3 1.4-.3 1-.9 1.6-.9 2.1-.1.4.6.4 1.4.1 1.7-.3.4-.6.1-.6-.6s-.5-.9-1-.6c-.8.5-.7 1.2.2 2.3 1.2 1.5 1.1 1.6-.4.3-1.5-1.1-2.1-1.1-3.3-.1-.9.7-1.4 1.9-1.1 2.6.3.9 0 1.1-1.1.7-1.2-.5-1.4-.3-.8.7.6.9.4 1.1-.4.6-.9-.6-.8-1.3.5-2.7.9-1 1.2-1.9.7-1.9-.6 0-1.4.7-1.7 1.6-.3.8-1 1.3-1.5.9-.5-.3-1.3 0-1.7.6-.4.7-.3.9.3.6.6-.4 1.3 0 1.7.8.6 1.6-1 2.9-3.4 3-1 0-1.4.9-1.3 2.5.1 1.4-.1 1.9-.3 1.2-.8-1.7-2.1-1.5-2.1.3 0 .8.5 1.5 1 1.5.6 0 .8.2.5.5-.3.3-1.8.1-3.4-.5l-2.9-1 2.4 2c1.3 1.1 1.8 2 1.2 2-.7 0-.9.5-.5 1.2s.3.8-.5.4c-.6-.4-.9-1.2-.6-1.7.9-1.3-.7-1-2.8.5-1.2.9-1.4 1.6-.8 2.1.6.3 1.1.1 1.1-.5s.4-.8 1-.5c.6.4.5 1.1-.3 1.9-.6.8-1.4 1-1.7.6-.9-1.3-3.7-.7-3.6.9.1.9-.4 1.5-1.1 1.4-.7-.2-1 .4-.7 1.2.4.8 1.1 1.2 1.7.8.6-.4.7-.1.3.6-.6.9-1.3.8-2.9-.6-1.2-.9-1.7-1.1-1-.4.6.7.9 2 .6 2.9-.4 1-.2 1.3.5.8.6-.3 1.3-.2 1.6.3.4.5-.2.8-1.1.6-1-.1-2.3.2-2.9.7-.7.5-1.7.7-2.4.6-.7-.2-1.4.8-1.6 2.2-.3 1.4-.9 2.6-1.4 2.8-1.4.5-1.2 5.2.2 5.2.6 0 .9.2.6.5-.9 1-3.8-.7-3.1-1.8.3-.6.1-.7-.5-.3-1.5.9-1.6-.6-.2-2.2.5-.7.2-.5-.7.3-1.3 1.1-1.4 1.8-.6 2.6 1.4 1.4.5 4.1-1.1 3.2-.6-.4-.4.1.4 1.1 1.4 1.8 2.5 5.4 1.2 4.1-.4-.4-.7-1.2-.7-1.7 0-.6-.6-1.3-1.3-1.6-.8-.2-1 .2-.6 1.3.4 1 .2 1.5-.7 1.3-.7-.2-1.5.5-1.7 1.6-.2 1.2 0 1.6.7 1.1.6-.3.9-1.1.6-1.6-.3-.5.1-.6 1-.3 1.4.6 1.3.9-.5 2.1-1.2.8-2.4 1.2-2.7.9-.6-.6-3.8 3.3-3.8 4.6 0 .3-.3 1-.8 1.4-.4.4-.7 1.2-.7 1.8 0 .5.6.2 1.3-.8 1.2-1.7 1.4-1.7 2.7.1.9 1.2 1 1.4.1.6-1-.8-1.7-.7-3.2.8-1 1-1.9 2.1-1.9 2.4 0 .8 2.4.1 3.3-1 .5-.6.7-.4.4.5-.2.8-.9 1.5-1.4 1.5-.6 0-1.5.3-1.9.7-.4.4-1.3.3-2.1-.4-1.1-.9-1.2-.7-.6.8.6 1.7.5 1.8-1.3.4-1.7-1.4-1.8-1.3-.7.1.7.9.9 2 .5 2.4-.4.5-.2.6.3.2.6-.3 1.7-.2 2.5.4 1.1.6.6.8-1.6.5-2.5-.2-3.1 0-2.9 1.3.2.9.4 2 .4 2.4.1.5.6.5 1.1.2.6-.3 1-.1 1 .4 0 1.7-1.5 1.3-3.3-.7-1-1-1.4-2.2-1-2.7.5-.4.2-.5-.5-.1-.9.6-1 1.1-.3 2 .6.7.7 1.7.3 2.1-.4.5-.2.5.4.2.7-.4 1.4.2 1.7 1.2.4 1.5 0 1.8-1.9 1.6-1.9-.2-2.2.1-1.3 1.1.6.7 1.8 1 2.7.7 1.3-.4 1.2-.2-.3 1-1.8 1.5-2.1 1.5-3.4-.1-1.2-1.5-1.2-1.4-.6.8.7 2.3.7 2.4-1.1 1-1.7-1.4-1.7-1.4-.2.9.9 1.3 1.4 3 1.1 3.9-.4 1-.2 1.3.5.8.8-.5 1-.2.6.8-.5 1.4-.8 1.4-2.1.1-.8-.8-2-1.5-2.6-1.4-.9 0-.8.2.1.6.6.2 1.2 1.4 1.2 2.4 0 1.3.4 1.8 1.3 1.3.6-.4.2.4-1 1.7-2.2 2.4-2.2 2.6-.5 4.4 1.7 1.9 1.7 1.9-.5.1-1.7-1.4-2-2.2-1.2-3.2.7-.9.6-1.4-.3-2-.7-.4-1-.4-.6.1.4.4.3 1.4-.3 2.1-.7.9-.6 2 .7 3.9 1.5 2.3 1.5 2.5 0 1.9-.9-.3-1.3-1.1-.9-1.7.3-.6.1-.7-.6-.3-.6.4-.9 1.6-.6 2.6.3 1 0 2.2-.6 2.6-.8.5-.9.3-.4-.6.5-.9.4-1.1-.3-.6-.7.4-1.2 1.4-1.2 2.2 0 .8.5 1.2 1 .9.6-.3 1-.1 1 .4 0 1.5-2.7 1.4-3.3-.2-.4-.9-.6-.9-.6 0-.1.6.9 1.9 2.2 2.8l2.2 1.7-2.2-.7c-1.9-.5-2.2-.3-1.6 1.1.4 1.2.3 1.5-.5 1s-1-.1-.5 1c.6 1.6.7 1.6 1.9-.1 1.2-1.6 1.3-1.6 1.1.3 0 1.1-.5 1.8-.9 1.6-.4-.3-.8-.1-.8.5s-.6.8-1.4.5c-.8-.3-1.7 0-2.2.7-.4.7-.3 1 .3.6s1.3.2 1.6 1.3c.5 1.9.4 1.9-2.7.4-2.5-1.2-2.8-1.2-1.3 0 1.2.9 1.4 1.6.7 2.1-.5.3-.8 1-.5 1.5.3.5-.2 1.6-1.1 2.4-.8.9-1.2 1.6-.7 1.6 1.1 0 4-2 2.9-2-.5 0-.3-.6.3-1.3.6-.8 1-1.6.8-1.8-.1-.2.4.2 1.1 1 .6.8 1.2 2 1.1 2.5 0 .6-.3.5-.6-.2-.2-.6-1-1.2-1.5-1.2-.6 0-.8.3-.5.7.4.3-.1 1.5-1 2.5-1.6 1.8-1.6 1.9 1.1 1.4 2.2-.4 2.5-.2 1.7.8-.6.7-2.2 1.1-3.5.9-1.3-.3-2.7.1-3.1.8-.5.8-.4 1 .3.5.7-.4 2-.2 2.9.4 1.4.9 1.4 1 .2.7-.9-.3-2.2-.1-3 .5-1.1.8-1.1.9.3.5 1.2-.4 1.6 0 1.5 1.4-.1 1-.5 1.9-.9 1.9s-.8.7-.8 1.6c0 .9-.5 1.2-1.2.8-.7-.5-.8-.3-.4.5.5.7 0 2.2-1.1 3.4-1.5 1.9-1.6 2 0 .8 1.2-1 1.7-1 1.7-.2 0 .7.5.9 1 .6.6-.3 1-1.1 1-1.6 0-.6-.4-.7-1-.4-.6.4-.7-.1-.3-1.1.6-1.5.7-1.5 1.5 0 1 1.8-.8 5-2.2 4.1-.5-.3-1.1-.1-1.5.5-.4.6-1.1.8-1.6.5-.5-.3-.6.1-.3.9.3.9 1 1.6 1.6 1.6.5 0 .6-.5.2-1.2-.5-.7-.3-.8.6-.3.9.5 1.1.4.6-.3-.5-.8-.1-1 1-.5 1.5.5 1.5.7 0 1.5-.9.5-1.3 1.4-.9 2.1.4.6.7 2.7.8 4.7.1 2.9-.3 3.6-1.8 3.6-1.4 0-1.6-.3-.5-1.1 2.1-1.6 1.8-2.9-.8-4.2-1.8-.8-2.6-.8-3.1 0-.3.7-.3.9.2.5 1.6-1.5 3.5 1.3 2.4 3.3-.8 1.6-.6 2.1 1.3 2.9 1.8.7 1.9.9.5.9-1.4.1-1.6.5-.7 2 .5 1.1 1 2.3 1 2.8-.1.4-.7-.3-1.4-1.7-.8-1.4-1.2-2.8-1-3.2.3-.5 0-.8-.5-.8-1.4 0-1.4 2.7-.1 3.5.5.3 1 1.4 1 2.3-.1 1.5-.2 1.5-1.5-.2-.8-1.1-1.5-1.5-1.5-.9 0 .7.5 1.5 1.1 1.8.7.5.4 1.6-.7 3.3-.9 1.5-1.1 2.1-.3 1.4.7-.6 2.2-1.2 3.4-1.1 1.9 0 1.9.1-.2 1.1-1.3.6-2.3 1.5-2.3 2s-.4.7-.8.4c-.5-.3-.9.1-.9.9s.4 1.2.8.9c.4-.2 1.3.6 2 1.8 1.2 2.2 1.1 2.2-.6.8-1.7-1.4-1.8-1.4-.6.7.6 1.3.9 2.3.5 2.3-.3 0-.1.6.5 1.4.7.9.8 1.7.2 2-1 .7-.9 3.1.2 4.2.4.4.2 1.3-.4 2.1-.6.7-.7 1.3-.2 1.3 1.1 0 1.3 3 .3 4.5-.4.5-.6 2.5-.5 4.2 0 2.1-.4 3.3-1.2 3.3-.7 0-1.3.5-1.3 1.1 0 .5.5.7 1 .4 1.3-.8 1.3.1 0 2.5-.7 1.3-.7 2.1.2 2.6.6.4.9.3.5-.2-.3-.5.1-1.8.9-2.9.8-1 1.4-1.4 1.4-.9 0 .6-.3 1.4-.7 1.8-1.3 1.3-1 8.6.4 9.7.7.6 1.3 1.7 1.3 2.3 0 .6-.5.3-1.1-.6-.8-1.5-1.3-1.6-2.9-.6-1.5 1-1.7 1.5-.7 2.7 1 1.2.9 1.4-.8.8-1.7-.6-1.8-.5-.5.5 1.7 1.4 2 5.5.6 7.7-.6.9-.5 1.2.2.7 1.6-1 2.7 1.5 1.1 2.6-1.2.8-1.1.9.1.5 1.6-.4 2.3-6.7.7-6.7-.5 0-.3-.8.4-1.7.8-.9.9-1.4.3-1-.6.3-1.1-.1-1.1-.9 0-.9.4-1.1 1-.5.5.5 1.7.7 2.6.4 1.4-.4 1.4-.3 0 .6-1.9 1.2-1.8 4.9.2 6.2 1.1.7 1.1.9.1.9-.8 0-1.2.9-1 2.2.2 1.8-.1 2.2-1.5 2-1.7-.3-1.7-.2 0 1.6 1 1 2.2 1.7 2.7 1.4.5-.3.6 0 .2.7-.6.9-1.3.8-2.9-.6-2.2-1.8-2.2-1.8-.4.4 1.2 1.4 1.5 2.3.8 2.8-.6.3-1.1.1-1.1-.6s-.3-.9-.6-.6c-.4.4-.2 1.3.4 2 .7.8.9 1.7.5 2-.3.4-.1.7.5.7.7 0 1.2-.4 1.2-.9 0-1.1 2.6-.9 3.7.3.4.4.3.7-.2.6-3.3-.7-4.5 1.3-2 3.3.6.5.1.7-1 .5-3.2-.5-5.6 2.1-4.3 4.6 1 2 .9 2-1.4-.2-1.8-1.6-2.5-1.8-2.5-.8 0 .8.3 1.3.7 1.1.3-.2 1.2.5 1.9 1.7.7 1.1.8 1.7.2 1.3-.6-.3-1.1-.1-1.1.5 0 .7-.7.9-1.6.6-1.2-.5-1.5-.2-1 1 .5 1.4.4 1.5-.9.4-1.7-1.4-.9-3.4 1.1-2.6.7.3 1.5.2 1.8-.2.3-.4-.4-.8-1.4-.9-1.2-.1-2.9 1.1-4.2 3-1.3 1.8-1.5 2.7-.6 1.9 1.3-1 1.7-1 2.1.1.3.9-.2 1.3-1.6 1.1-1.2-.1-2.6-.3-3.1-.3-.5-.1-.3-.7.3-1.5.9-1.1.9-1.6 0-2.2-.7-.4-.9-.3-.5.4.3.6.2 1.3-.4 1.7-.6.4-.7 1.1-.4 1.7.5.8.1.9-1 .5-1-.4-1.5-.3-1.1.3.3.6.1 1-.4 1-.6 0-1.1.5-1.1 1.1 0 .8.5.8 1.5-.1s1.5-.9 1.5-.1c0 .6-.5 1.1-1.1 1.1-.5 0-.7.6-.3 1.2.4.7.3 1-.1.5-.5-.4-1.8.1-2.9 1-1.4 1.2-1.7 1.3-.9.3 1-1.3.8-1.8-1-3-2.1-1.2-2.1-1.2-.7.5 1.3 1.7 1.3 1.8-.1 1.3-.9-.4-2.6 0-3.7.7-1 .8-2.3 1.1-2.7.7-.5-.4-.5-.1-.1.5.5 1 1.3.9 3.4-.5 1.4-.9 2.3-1.2 1.9-.5-.4.6-.4 1.3 0 1.6.5.2.2.2-.6 0-1.7-.4-5.3 2.6-4.5 3.8.9 1.6-.3 1-1.7-.8-1.2-1.4-1.2-1.5-.1-.9 1.1.7 1.2.4.3-1.3-.7-1.2-.9-2.7-.5-3.3.4-.7.3-.8-.5-.4-.7.5-.9 1.6-.5 2.8.4 1.3.2 1.8-.4 1.4-.6-.3-1.3-.2-1.7.4-.4.6-1.1.8-1.6.4-.5-.3-.8 0-.7.8.2.7-.3 1.2-.9 1.1-.7-.2-1.3.2-1.3.7 0 1.4 1.3 1.3 2.8-.2.9-.9 1.2-.9 1.2.1 0 .7.5.9 1.1.5.8-.5.8-.9-.1-1.4-.7-.4-.8-1-.3-1.3.5-.3 1.4.3 2.1 1.4.7 1 .9 1.9.5 1.8-.5-.1-1-.1-1.3.1-2.8 1-6.1.6-7-.8-1-1.5-1-1.4-.6.3.3 1.1.1 2.7-.5 3.5-.9 1.3-1 1.3-.7 0 .2-.8-.2-1.5-.7-1.5-.6 0-.9.9-.9 2 .2 1.8.1 1.8-1.1.1-.8-1-1.1-2.4-.9-3.1.3-.7 0-1.6-.7-2.1-.8-.4-1-.3-.5.4.4.6.2 2.1-.5 3.3-.9 1.7-.8 2 .2 1.4.7-.5 1-.4.5.3-.3.5-.1 1.2.6 1.4.7.3.5.7-.6 1.1-1.1.5-1.5.3-1-.5s.2-.9-1.2-.3c-3 1.2-5.8 1.3-6.7.1-.5-.6-.6-.1-.2 1.1.3 1.2.1 2.5-.6 2.9-.8.4-.9.3-.5-.4s.2-1.2-.4-1.2c-.6 0-.9-.4-.6-.8.3-.5-.1-.9-.8-.9-.8 0-1.2.5-1 1.1.2.6-.6 2.2-1.8 3.6-1.3 1.4-1.9 2-1.5 1.3.5-.6.4-2-.2-3-1.1-1.7-1.1-1.7-.9.2.2 1.1-.3 2-.9 2.1-.7.1-1.8.2-2.4.3-.5 0-.7.5-.4 1.1.3.5.1 1-.4 1-1.5 0-1.4-1.3.2-2.9 1-1.1.9-1.2-.2-.6-1 .6-1.3.4-.9-.7.4-.8 0-1.5-.7-1.5-1 0-1.1.5-.4 1.9.7 1.4.6 1.8-.6 1.8-.8 0-1.5.5-1.5 1.1 0 .5.6.7 1.3.3.9-.5.9-.4 0 .6-1.6 1.7-5.3 2.4-5.3 1 0-.6.5-.9 1.1-.7.6.1 1.4-.4 1.6-1.1.6-1.4-1.3-1.6-2.2-.2-.4.6-1.1.7-1.7.4-.6-.4-.8-.2-.5.3 1 1.5-2.3 2.6-3.8 1.3-1.7-1.4-4.7 1.4-3.9 3.5.4.9 0 1.5-.7 1.5-1.1 0-1.1.3.1 1 1.3.9 1.3 1 0 1s-1.3.1 0 1c1.3.8 1.3 1-.2 1-.9 0-2-.5-2.3-1-.3-.6-.2-1 .3-1s.8-1.5.8-3.4c-.1-4.2-1-5.5-1.3-1.8-.3 5.1-.7 7.2-1.5 7.2-1.7 0-.6 1.9 3.3 6 2.3 2.4 3.1 3.7 1.9 3-1.2-.7-2.5-.8-2.9-.3-.3.4-.5.7-.2.6.2-.1 1.3.3 2.5.9 1.1.7 2.4 1.1 2.9 1 1.2-.3.8.5-1 1.9-1.4 1.2-1.6 1.2-.8 0 .6-1 .4-1.2-.4-.7-.9.6-.9 1.2.3 2.5 1.3 1.4 1.3 2 .3 3.1-.9 1-.9 1.1.1.6.6-.4 1.2-.2 1.2.4 0 .7.9.9 2.3.5 2.2-.7 2.2-.7.2.9-1.3 1-1.5 1.5-.5 1.4 1.3-.3 1.6.2 1.9 3.8 0 .8.6 1.2 1.1.9.6-.3 1-.1 1 .4 0 1.4-1.7 1.4-2.5.1-.3-.6-1.4-.9-2.3-.9-1.5.1-1.5.2.1.6 1.5.4 1.6.7.6 2.1-1.1 1.4-1.1 1.5 0 .5 1.5-1.3 4.4-.6 3.5.8-.3.5.3.6 1.3.2 1.6-.6 1.6-.5.4 1-.7.9-1.8 1.4-2.4 1-.6-.3-.7-.1-.3.6.6.9 1.4.8 3.4-.5 2.4-1.6 2.6-1.6 1.3-.1-.7.9-1.1 1.8-.7 1.8.3.1 1.2.2 1.9.3 1.3.2 1.1 2.5-.4 4.1-.7.7-.8.5-.4-.6.3-.9-.2-2.2-1.1-3-1.2-.9-1.5-1-1-.2.4.7.2 1.3-.3 1.3-.6 0-1.1.5-1.1 1.1 0 .8.6.7 1.6-.2 1.5-1.2 1.6-1.1 1 .9-.5 1.4-.3 2.2.4 2.2.6 0 .8.5.5 1-.6 1 .7 1.4 3.3 1.1.6-.1 1.2.3 1.2.9 0 .5-.6 1-1.2 1-1 0-.9.3.1.9.7.5 1 1.4.7 2-.5.7-.2 1 .6.9.7-.2 1.2.3 1 1-.1.8.2 1.1.8.7.5-.3 1.5.5 2.2 1.9 1 2.3 2.6 3.1 5.1 2.7.5-.1.6.3.2.9-.3.5-.1 1 .6 1s.9.3.6.6c-.4.4-1.3.2-2-.4-1-.9-1.4-.8-1.4.3 0 .8.4 1.2.9.9.5-.4.9 0 .7.7-.3 2.8.1 3.9 1.6 3.9 1.4 0 1.9 1.2 1.6 3.2 0 .5.5.7 1.2.5.6-.1 1.1.4.9 1.1-.1.8.2 1.1.9.6.8-.5 1-.2.7.7-.4 1 .2 1.5 1.8 1.7 1.3.1 2.4-.4 2.4-1.1 0-.6.5-.4 1.1.6.6 1 1.5 1.4 2.2 1 .7-.4.6 0-.2 1-1.1 1.3-1.7 1.5-2.8.6-.7-.7-1.6-.9-2-.5-.3.3 0 .6.8.6 1.1 0 1.1.2.1.9-.9.5-.3.8 1.7.9 1.8 0 3.1-.5 3.1-1.1 0-.7.5-.4 1.1.6.6 1 1.5 1.4 2.2 1 1.3-.7-1.1 2.6-2.8 4-.5.5.1.5 1.4.2 1.6-.5 2.1-.4 1.7.4-.4.7-.1.9.7.5.8-.3 1.8 0 2.3.7.4.7.3 1-.4.5-.6-.3-1.4-.2-1.7.4-.4.6-.1.9.7.8.7-.2 1.2.3 1.1.9-.4 1.8.5 1.6 2.5-.4 1.6-1.6 1.6-1.6-.3-.9-1.5.5-1.7.4-.8-.5 1.8-1.8 3.5-.2 2.3 2.2-.6 1-.7 1.8-.3 1.7.4-.1 1.7.3 2.9.9 2.2 1.3 6.6 1.4 5.8.2-.2-.4-1.3-.5-2.4-.2-1.2.3-2 0-2-.6 0-.7-.5-.9-1.2-.5-.7.5-.8.3-.3-.6.6-.9.4-1.1-.6-.5-1.2.7-1.2.5-.1-.6.9-1 1.5-1 2-.3.4.6 1.7 1 2.9.9 1.2-.1 2 .2 1.7.7-.3.4.2.8 1.1.8.9 0 1.3-.4 1-1-.3-.5-.1-1 .4-1 .6 0 1.1.4 1.1.9 0 1.4 3 .7 4.1-1 .7-1.2.9-1.2.9.1s.1 1.3 1 0c.7-1.1 1-1.1 1-.2 0 .7.5 1 1 .7.6-.4.7-1.2.4-1.8-.5-.9-.4-.9.6 0 .8.8 1.9.9 3 .3 1.2-.6 1.7-.5 1.7.4 0 .7-.6 1.3-1.4 1.4-.7.1-2 .3-2.8.4-.8.1-1.5.5-1.5 1 0 1 2.4 1.1 3.4 0 .7-.7 1.1-.8 3.7-1.1.5 0 .7-.5.4-1.1-.3-.6.1-.7.9-.4 1.5.6 2 1.7 1.7 3.6 0 .4.8.9 1.8 1.3 1.9.6 2.2 2.8.6 4.2-.4.4-.5.2-.1-.5.4-.6.2-1.2-.4-1.2-.6 0-.8-.5-.5-1 .3-.5-.1-1-1-1-1.1 0-1.5-.5-1.1-1.6.4-1 .2-1.3-.6-.8-.7.5-.8.3-.3-.6.5-.9.4-1.1-.3-.6-.9.5-.9 1.3-.2 2.7.6 1 .7 1.9.3 1.9-.4 0 .1.6 1.1 1.3 1.6 1.2 1.6 1.4.2 2.6-.9.8-1.6.9-1.6.3 0-.6.6-1.3 1.3-1.5.6-.3.3-.6-.9-.6-1.4-.1-2-.7-2-2.2.1-1.2-.5-2.4-1.1-2.6-.7-.3-1.3 0-1.3.7 0 .6.4.8 1 .5.6-.4.9.5.8 2-.2 1.6-.7 2.4-1.5 2.1-.7-.3-1.2 0-1 .6.1.6-.4 1.3-1.2 1.6-.9.3-1.1 0-.6-.8.5-.9.4-1.1-.4-.6-.6.4-.9 1.1-.6 1.6.3.5.1 1.2-.5 1.5-.8.5-.8 1.1-.1 1.9.6.7.8 1.6.4 1.9-.3.4-.1.7.5.7s1.4-.5 1.7-1c.3-.6.1-1-.5-1s-.8-.5-.5-1c.3-.6 1-1 1.5-1 1.2 0 .6 2.8-.9 4.3-1 .9-1.6.8-2.8-.8l-1.6-2 .8 2c1.2 3.2 1.4 6.5.4 6.5-.5 0-.9.4-.9.9 0 .4.8.8 1.7.8 3.6 0 4.2.3 3.7 1.8-.4.8-1.1 1.2-1.7.8-.6-.3-.7-.1-.3.5 1 1.6 1.4 1.5 2.7-.9.9-1.7.8-2.3-.2-3-1-.6-.7-.8.8-.6 1.2.2 2.6.7 3 1.2.5.4.3.5-.3.2-.7-.4-1.5 0-1.8.9-.4 1.2-.2 1.5.9 1.1.8-.4 1.7-.2 2 .4.4.5 1.2.6 1.8.3.7-.4.9-.4.5.1-.4.4-.3 1.6.3 2.6.7 1.4.6 1.9-.3 1.9-1.8.1 1.7 2 4.4 2.5 1.7.4 1.9.2 1-.7-.7-.7-1.2-1.6-1.2-2.2 0-.5.9.1 1.9 1.3 1.4 1.6 2.1 1.8 2.4.9.3-.7.4.1.2 1.9-.2 1.8-.6 3.8-1 4.5-.4.7 0 .5.8-.4.9-1.2 1.7-1.4 2.4-.7.8.8 1.3.7 1.8-.2.6-.8.4-1-.5-.4s-1.1.4-.5-.5c.5-.8.4-1.1-.3-.6-.6.3-1.3.2-1.6-.3-1.5-2.4 1.5-1.9 4 .6 1.7 1.8 2.5 2.2 2.1 1-.8-2.3 0-2.2 1.3.2.7 1.5.6 2.3-.6 3.5-.8.9-1.1 1.6-.5 1.6.5 0 1.3-.5 1.6-1 .4-.6 1.1-.8 1.6-.4.5.3 2-.1 3.3-.9 1.9-1.3 2.3-1.3 2.3-.2 0 .8-.4 1.2-.9.9-.4-.3-.8.2-.8 1 0 1.9 1.1 2.1 2.7.5.9-.9 1.1-.8.9.4-.1.9-.6 2-1.1 2.4-.4.4-.5.2-.1-.4.5-.9.2-1.1-.8-.7-.9.4-1.8-.1-2.2-1-.3-.9-1.1-1.3-1.6-1-.5.4.2 1.4 1.7 2.4 2 1.3 3.6 1.5 6.6 1 2.2-.4 3.7-.5 3.4-.2-.9 1 1.6 3.1 3.1 2.5.8-.3 1.4-.1 1.4.4 0 1.3-3.3 1.3-4.1 0-.9-1.2-6.1-1.8-5.3-.6.3.5 1 .7 1.5.4.5-.4 2.4.5 4.1 1.8 3.8 2.8 7.2 4.6 4.5 2.4-1.4-1.2-1.5-1.6-.4-2.6.8-.6 1.8-.7 2.2-.3.5.4.5-.1.2-1-.3-1-.2-2 .4-2.3.5-.4.9-.3.8.2-.4 2.2.2 4.4 1 3.8.5-.3 1.3 0 1.7.6.5.8.3.9-.7.4-1.1-.7-1.1-.5.1 1.1.8 1 1.5 2 1.6 2.2.1.2.4-.4.8-1.3.4-1.1.2-1.4-.6-.9-.6.4-.8.3-.5-.4.4-.5 1.5-.9 2.5-.8.9.2 2-.2 2.4-.8.4-.6 1-.7 1.5-.3.4.5.3 1.1-.2 1.5-1.6 1.1-1.6 3.9-.1 3.9.8 0 1.2-.6.9-1.3-.2-.7 0-2.1.7-3.1.9-1.5 1-1.4.4.7-.6 2.2-.5 2.3 1 1.1 1.8-1.5 2.2-.1.5 1.6-.8.8-.8 1.3 0 1.8.7.4 1 .1.9-.7-.5-2.1 3.6-1.6 5 .7 1.2 1.9 1.2 1.9.6-.5-.6-2.3-.6-2.4 1.2-1 1.5 1.1 1.6 1.1.7 0-.7-.8-1.3-1.7-1.3-2.1 0-.9 2.7-.5 3.7.6.4.4.2.5-.4.1-.9-.5-1.1-.2-.7.8.3.9 1 1.6 1.4 1.6 1.8 0 4-1.3 4-2.3 0-.7-.4-.7-1.2.1-.7.7-1.6 1.2-2.2 1.2-.5 0-.6-.3-.3-.6.3-.4.2-1.5-.4-2.5-.7-1.5-.6-1.7.6-1.3.8.3 1.2 1 .9 1.5-.3.5-.1.9.5.9.5 0 1.4-.8 2-1.7.5-1 1.3-1.4 1.7-1 .5.5.2 1.2-.6 1.7-1.2.8-1.2 1-.1 1 1.1 0 1 .4-.2 2.3s-1.3 2.4-.2 2.4c.8 0 1.2-.3 1-.7-.2-.4.3-1.7 1.1-2.9 1.3-1.8 1.8-2 3.2-.9 1.4 1.2 1.4 1 .3-1.1-1.1-1.9-1.5-2.1-2.3-1-.8 1.2-.9 1.2-.6 0 .2-.8 1.4-1.5 2.5-1.6 1.4-.1 1.9.3 1.6 1.2-.4.9 0 1.1 1.1.7.9-.3 1.3-1.1.9-1.7-.3-.6-.1-.7.5-.3.7.4 1.2.1 1.2-.8 0-1-.7-1.3-2.1-1.1-1.2.3-1.9.1-1.5-.2 1.5-1.5 3.9-1 4.3.8.6 2.3 1.2 2.3 3.7.4 1.1-.8 2.5-1.5 3-1.5.6.1 0 .7-1.3 1.4-1.6.9-2 1.6-1.2 2 .9.6.9 1.1 0 2.2-1 1.2-.9 1.3.5.8 1-.4 1.5-1.2 1.2-1.9-.3-.8.1-1.5.7-1.8.7-.3 1.4.4 1.5 1.4.4 4.3.6 4.9 1.4 4.9.5 0 .6-1 .2-2.2-.6-2-.5-2.1 1-.9.9.8 1.9 1.1 2.3.7.3-.3.1-.6-.5-.6s-1.7-1-2.3-2.2c-1.2-2.2-1.1-2.2.8-.6 1.1 1 2.5 1.8 3.2 1.8.8 0 1 .8.6 2.2-.6 1.9-.5 2.1.6 1 1.1-1 1.1-1.6.1-3.3-.8-1.2-1.1-2.4-.8-2.7.3-.3.6.1.6.8 0 .9.7.7 2.2-.6 1.8-1.5 2-1.6.9-.2-1.1 1.5-1.1 1.9.3 2.4.9.3 1.3 1.1.9 1.8-.3.6 0 .5.8-.2 1.2-1.1 1.2-1.4-.1-2.3-1.1-.8-.9-.9.9-.4 1.8.6 2.2.4 1.6-.6-.6-1.1-.5-1.2.6-.1 1.8 1.7 3.4 1.5 2-.2-1-1.1-.9-1.4.1-1.2 2.4.3 2.3 1.8-.2 3.5-1.8 1.2-2.2 1.2-1.6.2.6-1 .5-1.2-.2-.7-.7.4-1.2 1.1-1.2 1.5 0 1.1 5.6.9 6.7-.2.4-.5-.1-.5-1.2-.1-1.6.6-1.8.4-.8-.6 1.3-1.4 4.8-.6 3.8 1-.3.5-.1 1 .5 1 .7 0 .9-.7.6-1.6-.5-1.2-.2-1.5.9-1 .9.3 1.4.2 1.1-.3-.4-.5 1.6-.8 4.2-.7 2.9.1 4.9-.3 4.9-.9 0-1.1-4.8-1.2-6.4-.2-.5.3-1.5.2-2.3-.3-1.1-.7-.9-.9 1-.9 8-.1 7.7 0 5.7-1.5-1-.8-1.4-1.7-.9-2 .6-.3 1.3.1 1.6 1 .3.8 1.1 1.2 1.6.9.6-.4 1-.3.9.2-.3 2 .2 3.4 1.1 2.8.5-.3.7-1.3.3-2.3-.3-1.1.1-.8 1.2.6 1.3 1.8 2 2 3 1.2 1.1-.9 1.2-.7.8 1-.4 1.6-.8 1.8-1.9.9-1.9-1.5-1.8-.1.1 1.7 1.1 1.1 1.5 1.2 1.5.3 0-.7.7-.5 1.6.7 1.5 1.9 1.5 1.9.5-.2-.6-1.2-.6-2.6 0-3.5.6-1 .9-1.1.9-.1 0 .7.5 1 1 .7.6-.4 1-.3.9.2-.4 2 .2 2.7 1.2 1.3.9-1.3 1-1.2.5.2-.3 1-.1 1.8.4 1.8.6 0 1 .8 1 1.8 0 .9 1 2.3 2.3 3.1 2 1.3 2.1 1.3.8-.2-.9-1.2-1-1.7-.2-1.7.6 0 1.4.7 1.7 1.5.4.8 1.2 1.5 2 1.5s1.4.5 1.4 1.1c0 .6.6.9 1.4.6.8-.3 1.7-.3 2.1.1.6.7 1 .8 3.6 1.1.5 0 .7.5.4 1.1-.3.6.1.7 1 .4 1.1-.5 1.4-.2.9 1.2-.5 1.6-.4 1.6.5.4 1-1.3 1.2-1.3 2.1 0 .6 1 1 1.1 1 .2 0-.6.5-1.2 1.1-1.2.5 0 .7.5.3 1.2-.4.6-.3.8.4.4.5-.3 1.3 0 1.6.6.3.7.3.3 0-.9-.4-1.7-.1-2.2 1.5-2 1.1 0 1.7.5 1.5.9-.3.4-.1.8.5.8.5 0 1.3-.5 1.6-1 .3-.6 1.2-1 1.8-1 .8 0 .7.4-.2.9-1.7 1.1-2.3 3.8-1.1 4.6.5.3 1.2 0 1.6-.6.5-.8.3-.9-.7-.4-1.2.8-1.2.6 0-.8.7-.9 1.9-1.7 2.5-1.6.7 0 .6.2-.2.6-.6.2-1 .9-.7 1.3.3.5 1.2.7 2 .3.8-.3 1.5 0 1.5.7s.6 1 1.4.7c.8-.3 2 .2 2.8 1.1 1.1 1.3 1.1 1.5-.2.7s-1.3-.6-.2.7c1.2 1.5 4.2 1.5 4.2.1 0-.3-.7-.2-1.6.1-.8.3-1.2.2-.9-.3.8-1.3 4.5-.9 3.8.4-.3.5-1.3 1.9-2.2 3-1.6 2-1.6 2 .5.2 1.2-1 2.4-1.5 2.6-1 .3.4.3.3.2-.4-.2-.6.5-1.7 1.4-2.5 1.5-1.2 1.6-1.1.3.5-.7.9-.9 1.7-.3 1.7 1.4 0 3.3-2.6 2.5-3.4-.4-.4.1-.4 1.2 0 1 .4 1.4.9.8 1.1-.7.3-.9 1.2-.6 2.1.4 1.5.3 1.5-.6.2-.9-1.3-1.1-1.3-1.1.1 0 .9.7 2 1.6 2.3.8.3 1.2 1 .9 1.6-.9 1.5.2 1.2 1.9-.6 1.8-1.8 2.1-3.4.6-3.4-.5 0-1 .7-1 1.6 0 .8-.5 1.2-1 .9-1.8-1.1 1-3.6 3.3-2.9 1.5.5 1.8.3 1.2-.7-.5-.8.1-.5 1.3.5 1.2 1.1 2.2 1.5 2.2 1s.5-.2 1 .6 1 1.9 1 2.5c0 .5-.5.3-1-.5s-1-1-1-.4c0 .5.7 1.9 1.5 3 1.3 1.6 1.4 1.7.9.1-.8-2.2 1.5-2 3.3.3 1.1 1.3 1.2 1.2.7-.5-.6-1.6-.5-1.8.7-.7.7.6 1.8 1.2 2.3 1.2.6 0 .3-.6-.6-1.3-1.1-.9-1.4-1.8-.7-2.8.7-1.1.9-1.1.9.3 0 1.9 1.1 2.3 2.4 1.1 1.3-1.3 5.3-1 5.3.4 0 .7-.4 1.3-.9 1.3-.4 0-.8-.5-.8-1.1 0-.5-.5-.7-1.1-.3-.8.4-.7.9.2 1.5.8.5.9.9.3.9-.5 0-1.5-.5-2.2-1.2-.7-.7-1.2-.9-1.2-.5s1 1.8 2.1 3c1.2 1.2 1.9 1.7 1.5 1-.9-1.6 1.2-2.7 2.8-1.4 1 .9 1.5.8 1.9-.3.4-.9.1-1.4-.6-1.2-.7.1-.9.1-.5-.1s.6-1 .4-1.6c-.1-.7-.1-.9.1-.4.3.4 1 .4 1.5.1.7-.4.8-.2.4.4-1 1.6.7 1.5 2.3-.1 1-.9 1.2-.9.7 0-.7 1.3 1.3 5.3 2.8 5.3.4 0 .3-.7-.4-1.5-1.2-1.4 0-2.2 1.3-.8 1.1 1 5.7 1.3 5.7.2 0-.5.7-.9 1.6-.9.9 0 2.3-.8 3.1-1.8 1.3-1.5 1.3-1.5.3.6-1.3 2.6-.3 2.9 1.7.4.8-.9 1.1-1.1.7-.3-.5 1.1-.3 1.3.9.8 1-.4 1.7-.1 1.7.6s.6.3 1.2-.8c1.6-2.9 1.6-2.9 3-1.8 1.9 1.3 4.4.9 4-.7-.3-1.1 0-1.1 1.2-.1 2.3 1.9 1.2 2.8-3.4 2.6-3.9-.2-5.5 1.5-3 3 .6.4.9.1.8-.6-.4-1.6 2.4-1.9 3.4-.4.5.6.8.5.8-.4 0-1.1.3-1.1 1.5-.1.8.7 1.2 1.6.9 2.1-.3.5.2.6 1.1.3 1.4-.6 1.4-.8-.2-1.9-1.7-1.3-1.7-1.4-.1-2 1-.4 1.6-1.1 1.3-1.5-.3-.5-.1-1.1.4-1.4 1-.7.9 1.3-.1 2.9-.4.6 1.2 1 4.3.9 3.1-.1 4.6.2 4.2.9-.3.6-.1.7.6.3.6-.4.9-1.2.6-1.7-.4-.5-.1-.9.6-.9.8 0 .7-.5-.2-1.8-1.3-1.5-1.2-1.6.4-.3 1.1.9 1.5 2.1 1.2 3.5-.5 1.7-.4 1.8.4.6.9-1.3 1.3-1.3 3.3-.1 2 1.3 2.2 1.2 1.1-.1-.7-.8-1-1.8-.6-2.2.4-.4.1-.5-.7-.1-.9.3-2-.3-2.7-1.5-1.1-1.6-1-1.8.2-1.4.8.4 1.5 1 1.5 1.5 0 1.4 2.4.6 3.1-1 .3-.8 1.5-1.5 2.6-1.6 1.5-.1 1.9.3 1.5 1.7-.4 1.8-.5 1.8-1.9.1-1.3-1.6-1.4-1.6-.9-.1.3.9 0 1.9-.7 2.1-.7.2-.8.8-.3 1.3s1.1.4 1.3-.4c.3-.6.9-1 1.4-.6.5.3 1.2-.2 1.5-1 .3-.9 1-1.3 1.5-1 .5.3.7 1 .4 1.5-.4.5-.1.9.5.9.7 0 1-.6.7-1.4-.3-.7 0-1.9.6-2.6.9-1 .9-1.2-.4-.7-.9.3-1.6 0-1.6-.8 0-1 .6-1.1 2.4-.2 1.3.5 2.3 1.4 2.3 1.9s-.5.6-1.2.2c-.7-.5-.8-.3-.3.6.6.9.4 1.1-.6.5-1.2-.8-1.2-.6 0 .8 1.6 2 2.2 2.2 1.8.6-.1-.6.6-1.3 1.6-1.4 1.5-.3 2.2.7 1.8 2.8-.1.5.3.6.9.2 1.1-.7-.4-4.3-2.4-5.8-.6-.5 0-.5 1.4-.1 2.2.6 2.3.5 1.2-.9-1-1.2-1-1.7-.1-2.3.7-.4.9-.3.5.4-.3.6-.2 1.3.3 1.7.6.3.8 1.2.5 1.9-.3.7.1 1.6.9 1.9 1 .4 1.3-.1.9-1.9-.2-1.4 0-2.4.7-2.4s.9.4.6 1c-.3.5.1 1 1 1s1.3-.4 1-1c-.3-.5 0-.7.9-.4.8.3 1.2 1.3 1 2.2-.5 1.4-.4 1.4.6-.1.6-.9 1.5-1.5 1.9-1.2.8.4 2.4-3 2.2-4.7-.1-.9 2.7-.4 3.6.7.4.4.3.5-.3.2-.7-.4-1.7 0-2.4.8-1.4 1.7-.3 2 2 .5.9-.5 1.9-.5 2.6.1.7.6 1.6.4 2.4-.6 1.5-1.8 3.1-2 2.6-.3-.1.7-.1 1 .1.5.3-.4 1-.4 1.6 0 .7.4.6-.1-.2-1.1-1.2-1.5-1.2-1.9.2-3.3.9-.9 3-1.8 4.7-1.9 2.6-.2 2.9 0 1.9 1.2-.6.8-.9 1.7-.6 2 .3.3 1.1-.5 1.8-1.7 1.2-2.3 1.2-2.3 2-.4.7 1.8.8 1.8.8.2.1-1 .5-1.6 1-1.2 1.9 1.1 2.3-1.7.5-3.1-1.1-.9-1.3-1.3-.7-.9.7.3 2.1.8 3 1 1 .2 2.7.7 3.8 1.1 1.7.7 1.8.6.5-.8-.8-.9-1.7-1.4-2-1.3-.3.2-1.2-.1-2-.7-1.2-.8-1.1-.9.4-.4 1.4.5 1.7.2 1.2-1.1-.4-1.1.1-.8 1.4.7 1.1 1.4 2 2.1 2 1.6s.7-.3 1.5.4c1.3 1.1 1.4 1 .9-.5-.6-1.4-.4-1.6.6-1 .9.5 1.1.4.6-.3-.4-.7-.2-1.2.5-1.2s.9-.3.6-.7c-.4-.3-.2-1.2.3-1.9 1.2-1.3 4.2-.8 8 1.4 1.9 1 2.1 1.1 1 .1-1.8-1.7-2.3-7-.6-6.8 2.6.3 3.7-.2 3-1.4-.5-.8-.2-.8.9.2 1.7 1.3 2.4 2.6.9 1.7-1.1-.6-4.7 2.2-3.8 3.1.4.4 1.2 0 1.7-.9.5-1 1.8-1.5 2.9-1.3 1.2.2 2.4-.4 3-1.6.6-1.1 1.6-1.7 2.1-1.3.7.4.6-.4-.1-1.7-1.3-2.4-1.2-2.4.7-.6 2 1.7 2 1.7 1.7-1-.2-1.5-.1-2 .2-1 .3.9.9 1.5 1.4 1.2.5-.3.7-1.2.4-1.9-.5-1.4 5.3-6.3 6.3-5.3.8.9-.7 2.8-1.8 2.2-.5-.4-.9-.1-.9.5s-.5.8-1.2.4c-.7-.5-.8-.3-.3.6.5.9.4 1.1-.3.6-.7-.4-1.2-.5-1.2-.2s.9 1 2 1.6c1.6.9 1.8.8 1.4-.5-.5-1.3.8-2.1 1.9-1.3.2.2 1.1-.3 2.1-1.1 1.5-1.3 1.5-1.5-.1-3.4-1-1.1-1.2-1.7-.5-1.3.7.4 1.5.1 1.8-.9.4-1 1.3-1.3 2.5-1 2.2.7 2.5-.5.7-2.5-1.1-1.2-1-1.2.5-.1.9.7 1.8 1.1 1.8.7.1-.3.2-1 .3-1.5 0-.5.5-1.3 1-1.8s.6-.3.2.5c-.4.6-.2 1.2.4 1.2.7 0 .5.7-.4 1.6-2.4 2.3-1.9 2.7.8.7 1.3-1 2-1.9 1.5-2.1-1.8-.7-.8-1.9 1.4-1.7 1.2.2 2.1.8 1.9 1.4-.1.7.2 1 .8.6.8-.5.7-1.2-.2-2.3-1.1-1.3-1-1.5.5-.9 1 .4 1.6.3 1.2-.2-.3-.5.4-1.2 1.5-1.6 1.1-.4 1.8-1.1 1.5-1.6-.4-.5-.2-.9.4-.9.6 0 .8-.7.5-1.5-.4-.8-1-1.2-1.5-.9-.5.3-.7.9-.5 1.3 1.3 2-5.4 6.4-7.5 4.9-1.1-.8-1.1-.9.3-.4 1 .3 2.2-.2 2.7-1.2.6-.9 1.1-1.3 1.1-.8s.7.3 1.5-.4 1.3-1.6 1-2c-.3-.4.2-1.3 1-2s1.5-.9 1.5-.5.7.2 1.5-.5c1.3-1.1 1.3-1.4-.2-2.7-1.7-1.3-1.6-1.3.3-.4 1.5.7 2.4.7 3.3-.2.7-.7 2.1-1.2 3.1-1.2 1.1 0 1.9-.5 1.8-1-.2-.6-1.1-.9-2-.8-1 .2-1.8-.2-1.8-.8 0-.5.4-.8.9-.4.5.3 1.7-.3 2.7-1.2 1.7-1.7 1.8-1.7 1.1 0-.6 1.5-.4 1.6 1.3.7 1.1-.6 2-1.9 2-2.9s.7-2.4 1.5-3.1c.8-.7 1.2-1.6.9-2.1-.3-.5.2-.6 1.1-.3 1.4.6 1.3.9-.4 2.6-2.3 2-2.6 3.4-1.2 4.2.5.3.8-.2.7-1.1 0-1 .6-1.8 1.4-1.8.8 0 1.6-.6 1.6-1.3.3-2.5.5-2.7 1.4-1.2.5.8 1 1 1 .4 0-.5-.9-2-2-3.2-1.2-1.2-1.6-2.2-1.1-2.2s1.3.4 1.6 1c.3.5 1.6 1.5 2.8 2.1l2.2 1.1-2.2-2.1c-2.4-2.3-3.2-4-1-2.4.8.7 2.3.2 4.7-1.5 1.9-1.4 2.7-2.2 1.8-1.9-1 .4-2.8.3-4-.2l-2.2-.8 2.2-.5c1.2-.4 2-.2 1.6.3-.3.5-.3.9 0 .9s1-1 1.7-2.1c.7-1.5.8-1.9 0-1.5-.7.5-.9.1-.5-.8.3-.9 1-1.6 1.6-1.6.5 0 .7.4.4.9-.3.4.2 1.7 1 2.7 1.5 1.9 1.5 1.9.6 0-.6-1.2-.6-2.9-.2-4.2.5-1.2.6-2.5.2-2.9-.3-.3.2-.3 1.3.1 1.5.6 1.7.4 1.2-1-.4-.9-.3-1.5.2-1.2.5.3 1.2-.1 1.5-1 .4-.9 1.2-1.4 2.1-1 3.7 1.5 4.8 1.6 2.5.3-1.4-.9-2.3-1.9-2.2-2.3.2-.4-.2-1.1-1-1.5-2-1.3.8-1.2 3.3.1 1.1.6 1.8.7 1.7.3-.4-1.2 2.8-5.4 3.5-4.8.4.3.5.2.2-.2-1-1.2-3.4-1.1-2.9.1.3.7-.2 1.8-.9 2.5-1.2.9-1.6.8-2.1-.5-.4-.9-.4-1.9-.1-2.2.3-.3.5 0 .5.7s.4 1 .9.6c.6-.3.8-1.4.6-2.3-.2-1.3.3-1.8 1.8-1.8 1.7.1 2.2-.5 2.2-2.6-.1-1.9.3-2.4 1-1.8.7.6 1.6.5 2.3-.2 1.6-1.6 1.5-2.5-.4-3.2-1.4-.5-1.5-.4-.5.8.8 1 .9 1.6.1 2.1-.5.3-1-.1-1-.9 0-2.3.4-3.1 1.3-2.8 1 .3 0-1.6-2.1-4.1-.8-.9-1.1-1.7-.6-1.7.5 0 .2-.5-.6-1.1-1.3-.9-1.3-1 0-.6.8.2 1.4.9 1.3 1.5-.3 1.5 2.5 2.3 3.3 1 .4-.7.3-.8-.4-.4s-1.2.3-1.2-.3c0-.5.6-1.2 1.3-1.5.8-.4.7-.5-.3-.4-2.1.2-5-1.2-5-2.4 0-.5.4-.7.9-.4.5.3 1.1-.1 1.4-.9.4-.9.1-1.2-.8-.8-.9.3-1.8-.2-2.1-1.2-.5-1.3-.9-1.4-1.5-.4-.6 1-1.3.6-2.9-1.4-1.9-2.4-2.4-2.6-3.9-1.5-1.4 1.2-1.5 1.1-.2-.5.9-1.2 1.7-1.4 2.6-.7.6.5 1.5.7 1.8.3.4-.3.7-.1.7.5 0 .7.4 1.2.8 1.2.5 0 .9-.6.9-1.4 0-.7-.7-1.3-1.6-1.1-.9.1-2.2-.2-2.9-.8-1-.8-1-1.3 0-2.6 1.1-1.4 1.1-1.4-.4-.3-1.1.9-1.8 1-2.3.2-.3-.5-.1-1 .4-1 .6 0 1.1-.5 1.1-1.2 0-.6-.3-.8-.6-.5-.4.3-1.4.2-2.4-.3-1.2-.6-1.7-.5-1.7.5 0 .7.5 1.2 1.1 1.1.6-.2.8-.1.3.1-.4.3.3 1.3 1.5 2.4 1.3 1 1.9 1.8 1.5 1.9-.5 0-1.5-.7-2.4-1.5-.8-.8-1.9-1.3-2.3-1-.5.3-.7-.3-.5-1.4.2-1-.2-2.9-.9-4.3-.7-1.3-1.1-3-.8-3.8.3-1.3.2-1.3-.7-.1-.6 1-.6 2.1 0 3.2.5 1 .5 2 .1 2.3-.9.5-1.2-.9-1.3-5.2-.1-1.2-.7-2.2-1.4-2.2-.8 0-1.7-.9-2-2-.3-1.1-1.1-2-1.6-2-.6 0-.8-.4-.4-.9.3-.6-.4-1.5-1.5-2.1-1.2-.6-1.8-1.6-1.4-2.3.4-.7.4-.9-.1-.5-.4.4-1.5.2-2.3-.5-.9-.6-1.3-.7-1-.2.4.6-.3 1.1-1.5 1.2-1.2 0-1.6-.1-.9-.4.6-.3 1.2-1.1 1.2-1.9 0-.9.5-1.2 1-.9.6.3 1 .1 1-.5 0-.7-.7-1-1.5-.7-.8.4-1.7.2-2.1-.4-.3-.5-1.4-.7-2.4-.4-1.6.5-1.9.2-1.5-2.3.3-2.7.1-3-2.1-2.7-1.4.1-2.4-.3-2.4-1s-.7-1.6-1.6-1.9c-1.7-.6-1-2.6.9-2.6.9 0 .9.2 0 .8-.9.6-.7 1.1.6 1.9 1.5.9 1.9.9 1.7 0-.3-2.4-1.8-3.8-3.6-3.2-1.3.4-1.9-.1-2.4-1.8-.6-2.6-4.6-7.7-4.6-5.9 0 .6.4 1.4 1 1.7.5.3 1.4 1.4 1.9 2.4.7 1.3.6 1.8-.4 1.8-.8 0-1.2-.4-.9-.9.7-1.1-1.6-3.9-2.6-3.3-.5.3-1.2 0-1.6-.6-.4-.8-.3-.9.4-.5s1.2.1 1.2-.8c0-1-.6-1.3-1.7-1-1.3.4-1.1 0 .5-1.3l2.3-1.9-2.3-.2c-1.3-.1-3.4-.3-4.7-.3-1.3-.1-2-.4-1.5-.7.8-.7 1-2.2.4-4.7-.1-.6-.2-1.4-.1-1.9s-.6-.3-1.5.5c-1.5 1.3-1.6 1.2-1-1.1.6-1.9.5-2.1-.3-1-1 1.3-1.1 1.3-1.2 0-.1-.8-.1-1.8 0-2.2.1-1.1-2.2-.5-3.1.7-.4.5-1 .6-1.4.2-.4-.3-.1-1.3.5-2.1 1-1.2.8-1.6-.9-2.1-1.1-.4-1.7-1.1-1.4-1.7.5-.7.2-.8-.6-.3-1 .6-.9 1.1.5 2.2 1.1.7 1.4 1.3.8 1.3-.5 0-2.1-1-3.4-2.2-1.7-1.4-1.9-1.9-.6-1.5.9.4 1.7.2 1.7-.3 0-1-1.3-1.4-4-1.1-1.1.1-1.1-.1.3-.9.9-.6 2.3-.8 3-.5.6.4.4 0-.7-.9-1-.8-1.5-2-1-2.7.5-.8.3-1-.5-.5-.7.5-1 1.4-.7 2.2.3.8.1 1.4-.4 1.4-.6 0-1-.6-1-1.3 0-.6-.8-2.1-1.7-3.2-1.5-2-1.6-2-.9 0 .4 1.1.4 1.6 0 1.3-.4-.4-1.6-.3-2.8.3-2 1-2 .9-.2-.5 1-.8 1.6-2.1 1.3-2.8-.4-1.1-.6-1.1-.6 0-.1.7-.5 1.1-1.1.7-.5-.3-.7-1.3-.4-2.3.4-1 .3-1.3-.3-.6-.4.6-1.6 1-2.5.9-1.1-.2-1.5.2-1.1 1.2.3.8 1.2 1.2 1.9.9.8-.3 1.4 0 1.4.6 0 .7-1.4.9-4 .5-3.9-.5-3.9-.5-1.9 1.2l2.1 1.7-2.1.1c-1.2.1-1.9-.2-1.6-.7.4-.6-.2-.7-1.1-.3-1.3.5-1.5.3-.9-.7.6-.9.4-1.1-.5-.5-1 .6-.8 1.2.9 2.7 1.3 1 1.7 1.8 1 1.8s-2.2-.8-3.3-1.8c-2.1-1.7-2.1-1.7-.2.5 1.1 1.3 1.4 2.3.8 2.3-.7 0-1.2.5-1.2 1.1 0 .5.4.8.8.5.4-.2 1.4 0 2.2.6 1.3.8 1.2.9-.1.5-.9-.3-2.2 0-2.9.6-1 .9-1.1.9-.5-.2.5-1 .4-1.2-.4-.7-1.6 1.1-.2 2.8 1.8 2.2 1.1-.4 1-.1-.4.9-1.1.9-2 2.1-2 2.8 0 .7-.4 1.2-1 1.2-.5 0-1.6.4-2.4.9-1.1.7-1.1 1 0 1.7.8.5 1 .9.4.9-.5 0-1.6-.4-2.4-.9-1.1-.7-1-1.1.5-2 1.1-.6 1.5-1 .9-1.1-.5 0-1.6.4-2.4.9-1.2.8-1.2 1.2-.2 2.5 1 1.2 1.1 1.6.1 1.6-.7 0-1 .7-.6 1.7s.4 1.4 0 1c-.4-.4-1.6.1-2.6 1-1.7 1.5-2.2 1.5-4.1.4l-2.2-1.4 2 2.3 2 2.3-2.5-1.3c-2.4-1.3-2.5-1.2-.7.7 1.9 2.2 2.2 3.3.6 3.3-.5 0-.8-.4-.5-.9.3-.5-.1-1.1-.9-1.4-.9-.4-1.2-.1-.8.9.6 1.7-.8 1.8-2.6.1-1.1-1-1.1-.8-.2 1 .7 1.5 1.7 2 2.9 1.7 1.4-.5 1.4-.4.3.4-.9.6-2.3.7-3.7.2-2.3-.9-4.4.4-3 1.7.3.4.6.1.6-.6s.5-.9 1.1-.5c.8.5.6 1-.5 1.6-.9.5-1.3 1.4-1 2 .4.7.2.8-.5.4-.6-.4-.9-1.2-.6-1.7.4-.5.1-.9-.5-.9s-.8-.5-.4-1.2.3-.8-.4-.4-.8 1.5-.3 2.9c1 2.6.3 5-1.1 4.1-.7-.4-.6-.9.2-1.4.8-.5.3-.9-1.4-1.2-1.4-.3-2.4-.1-2.3.6.1.5-.8 1-2 1.1-1.3 0-3 1.1-4 2.5-1.5 2.1-1.5 2.3-.1 1.2 1.4-1.1 1.6-1.1 1.4 0-.1.7-.8 2.2-1.5 3.3-.9 1.5-1.1 1.5-.7.3.3-1 .1-2-.5-2.4-.5-.3-.7-1.5-.4-2.7.5-1.7.4-1.9-.4-.7-.6.8-.8 2.3-.5 3.3.5 1.6.3 1.7-1.5.7-1.2-.6-2-.7-1.9-.3.2.4-.1.9-.7 1-.5.1-.9-.6-.7-1.5.2-1.4.1-1.5-.7-.2-.5.8-.7 1.9-.3 2.5 1.3 2 1 3.4-.6 2.8-1-.4-1.3-.2-.8.5.4.7.2 1.2-.3 1.2-1.5 0-1.4-1.3.2-2.9 1-1.1 1-1.3 0-.7-.8.4-1.3.2-1.3-.5s-.6-.4-1.4.6c-1.1 1.6-1.7 1.7-2.9.7s-1.7-1-2.3-.1c-.4.7-.3.9.4.5.6-.3 1.3-.2 1.6.3 1.2 1.8-1.5 2.3-3.4.6-1.6-1.5-1.8-1.5-1.6-.1.1.9.8 2.2 1.6 2.9 1 1 1.1.9.5-.3-.8-1.3-.7-1.3 1.1 0 2.9 2.2 3 2.4 1.2 1.7-1.1-.4-1.8-.1-1.8.6 0 .8-.3.8-.9-.2-.5-.7-1.4-1-2-.7-.6.4-.8 1.2-.5 1.8.4.6-.1.6-1.4-.1-3-1.6-3.6-1.4-2.1.6.7 1 .9 1.5.5 1.1-.5-.4-1.5 0-2.3 1-1.2 1.6-1.3 1.6-.7-.1.9-2.6-1.5-2.1-2.6.6-.7 1.8-.9 1.8-.9.4-.1-1.2-.5-1.6-1.3-1-1.9 1.1-3.9 1.3-3.2.2.3-.5 0-.9-.7-.9-1 0-1-.3-.1-1.2.7-.7 1.2-1.7 1.2-2.3 0-.5-.5-.2-1.1.8-.6.9-1.5 1.4-2.1 1.1-.7-.5-.8-.2-.3.6.6 1 .4 1.2-.8.7-1-.4-2.3.3-3.7 2.1-1.2 1.5-1.8 2.1-1.4 1.3.5-1.1.3-1.3-1-.8-1 .4-2.4-.1-3.6-1.3-1.8-1.8-1.9-1.8-2.5-.1-.5 1.5-1.2 1.7-3.8 1.2-1.8-.4-4.7-.6-6.4-.5-1.8.1-3.3-.2-3.3-.7 0-.5-.4-.9-.8-.9-.5 0-.9.7-.9 1.5s.5 1.1 1 .8c.6-.3.7-.1.3.5-.5.8-.2 1 .8.6s1.6-.1 1.6.7c0 1 .3 1 1.2.1 1.7-1.7 2.8-1.5 2.8.5 0 1.5-.2 1.6-1 .3-.9-1.4-1.5-.7-1.1 1.4.1.5-.4.5-1.1-.1-.7-.6-2.1-.9-3-.8-1 .2-1.6-.2-1.5-.8.1-.8-1-1.1-3-1-1.8.1-3.3-.2-3.3-.6 0-.5 1-.8 2.2-.7 1.1 0 2.3-.6 2.5-1.4.4-1.2.3-1.3-.5-.1-.8 1.1-1.1 1-1.5-.5-.4-1.7-.5-1.7-.6-.1 0 1-.6 1.5-1.1 1.2-.6-.4-.7-1.2-.3-1.8.4-.7 0-.6-1 .2-.9.7-1.7 1-1.7.6s-.7-.2-1.6.5c-1.2 1.1-1.5 1.1-1.2-.1.2-1-.5-1.3-2.5-1.2-1.8.1-2.5-.2-2.1-.9.4-.6.3-.8-.4-.4-.6.3-1.6-.2-2.2-1.1-1-1.6-1.1-1.6-.6-.1.3 1 .1 2-.5 2.3-.5.4-.6 1.1-.3 1.7.4.6.2.8-.4.5-.5-.4-.8-1.6-.5-2.7.3-1.2 0-2-.6-2-.7 0-1 .4-.6.9.3.5 0 1.3-.6 1.7-.8.5-.9.3-.4-.6.6-1 .4-1.2-.9-.7-.9.4-1.5.3-1.2-.2.3-.5-.2-1.1-1.2-1.3-1.8-.5-2.8-4.8-1.1-4.8.5 0 .8-.3.8-.8-.3-1.8.2-3.3.9-2.8.4.2 1.4 0 2.2-.5 1.2-.7 1.1-.8-.5-.6-1.1.1-2.5.6-3.1.9-.6.4-1.1.1-1.1-.7 0-.8.5-1.1 1-.8.6.4.8-.4.5-2-.3-1.6-.1-2.5.6-2.4.6.1 1-.5.8-1.3-.2-.8 0-1.1.4-.7 1.1 1.1 1.4 3.8.3 3.1-.5-.3-.9.2-.9 1 0 1.7 1.9 2.2 2.1.6.1-.6.2-1.6.3-2.3.1-.6-.2-2.1-.7-3.2-1-1.8-.9-1.9.8-.5 1.7 1.4 1.8 1.4.6-.8-.6-1.2-.8-2.2-.4-2.2s.1-.5-.7-1c-1.1-.7-1.1-1-.2-1 .7 0 1-.5.7-1-.3-.6.1-1.3.9-1.6.9-.3 1.6-1.6 1.7-2.8 0-2.1 0-2.1.9.1 1.9 4.6 2.2 1.7.5-3.2l-.8-2 1.6 2c1.6 2 1.6 2 1.2-.1-.3-1.9.1-2.1 3.3-1.8 2.8.2 3.3.1 2-.7-1.1-.6-1.5-1.6-1.1-2.6.4-1.1.3-1.4-.5-.9-.7.4-1.2.2-1.2-.3 0-1.4 1.6-1.4 4.3 0l2.2 1.1-2-1.9c-1.2-1.1-2.7-2.3-3.5-2.7-1.8-.8 1.6-.1 4.5.9 1.5.5 1.7.4.6-.3-.8-.6-1.5-2-1.6-3.1-.1-1.7.3-2 1.9-1.6 1.9.5 1.9.4-.1-.6-1.3-.7-2.3-1.6-2.3-2.1s-.4-.7-.8-.4c-.5.3-.9-.1-.9-.9s.4-1.2.9-.9c.4.3.8 0 .8-.5 0-2.3.2-2.6 2.3-3.8 2.7-1.5 1.8-1.6-2-.3-2.4.9-2.6.8-1.1-.3 1-.8 1.5-1.7 1.1-2-.3-.4 0-1.3.7-2.2.9-1.1 1.7-1.2 3.1-.4 2.8 1.5 2.3.4-.7-1.6-1.5-.9-2.3-1.2-2-.6.4.6.2 1.1-.3 1.1-1.4 0-1.4-1.3.1-2.8.8-.8.8-1.5-.2-2.7-1.1-1.4-1.1-1.8-.1-2.5.9-.5 1-1.3.5-2.1-1.3-2.1-1.4-4-.1-3.2.6.4.8 0 .4-1-.6-1.6.8-3.2 2.8-3.2.6 0 1-.5 1-1 0-.6.4-1.7 1-2.5.8-1.3.7-1.3-.8-.1-.9.7-1.4 1.8-1 2.5.3.6 0 .6-.8-.2-1.7-1.6-3.2-1.6-2.3 0 .4.7.3.9-.1.5-.5-.4-1-1.4-1.1-2.2-.2-1.2.2-1.2 1.7-.5 1.5.9 1.9.7 1.9-.5 0-.9-.4-1.4-.9-1-.5.3-1.3 0-1.7-.6-.4-.7-.3-.9.4-.5.6.3 1.3.2 1.7-.3.3-.5-.2-1.4-1.1-1.9-1.5-.8-1.5-1 .1-1.5 1.1-.5 1.4-1.3 1-2.6-.3-1.1.1-2.5 1-3.4 1.8-1.8 2-6.7.3-6.7-.6 0-.8-.3-.5-.6.4-.4 1.4-.1 2.4.7 1.4 1.2 1.6 1.2.8 0-.6-1.1-.4-1.3 1.1-.8 1.2.5.9-.1-.9-1.4-2.1-1.6-2.5-2.4-1.7-3.4s.7-1.3-.4-1.1c-.9.1-1.9.6-2.3 1.1-.5.4-.1.5.7 0 .8-.5 1.2-.4.7 0-.4.5-1.6 1-2.7 1.2-2 .3-2 .3 0-1.7 1.1-1.1 2.4-2 2.9-2 .6 0 1.3-.4 1.6-1 .7-1.1-2.3-.2-4.2 1.3-.7.5-1.3.6-1.3.2 0-.4-.6-.2-1.4.4-1 .9-1.7.7-2.7-.6-1.3-1.6-1.2-1.7.3-.5 1.1.9 1.8 1 2.3.2.3-.6 1.1-.8 1.6-.5.5.4.9-.1.9-1 0-1 .5-1.3 1.3-.9.6.4.8.3.4-.1-1-1.2-3.8-1.5-3.1-.4.3.5-.2.9-1 .9s-1.8-.5-2.2-1.1c-.4-.8-.9-.7-1.5.2-.6 1-.9 1.1-.9.1 0-.6-.6-1.2-1.4-1.2-.9 0-1.4-.9-1.3-2 .1-1.3.6-1.9 1.5-1.5.7.2 1 0 .7-.5-1.1-1.7-2.5-1.1-3.7 1.5-.6 1.4-1.6 2.5-2.1 2.5s-.3-.7.4-1.7c1.1-1.3 1.1-1.7.1-2-.6-.3-1-.9-.7-1.4.4-.5-.1-.6-1-.3-1.1.5-1.3 1-.5 1.9.7.8.5 1.2-.5 1.2-.7 0-1.3-.5-1.2-1.1.1-.6-.4-1-1.1-.8-.8.1-1.1-.2-.7-.8.3-.6 1-.8 1.5-.5.5.3 1.2 0 1.6-.6.5-.8.3-.9-.6-.4-.9.5-1 .1-.6-1.6.7-2.3.6-2.3-.5-.4-.7 1.1-1.7 2.3-2.2 2.7-1.3.8-3.7-.1-3.7-1.4 0-.7.5-.6 1.4.1 1.1.9 1.5.8 2-.5.9-2.3.7-3.1-.3-1.5-.7 1.1-1.6.8-4.7-1.3-2.1-1.4-3.2-2.6-2.5-2.6.8 0 1.1-.3.8-.6-.4-.4-1.3-.2-2 .4-1.7 1.5-2.8.5-1.9-1.6.5-1.4.4-1.5-1-.2-1.5 1.4-1.5 1.6-.1 2.7.9.7 2 1 2.6.6.6-.3.7-.1.3.5-.4.8-.2 1 .7.6 1.9-.7 3.2 1.2 1.6 2.2-.8.5-.9.3-.4-.6.5-.8.3-1.1-.6-.8-.8.3-1.3 1.2-1.1 1.9.2.8 0 1-.5.6-.4-.5-.9-1.3-.9-1.8-.3-2.2-.5-2.3-1.4-.9-.8 1.3-1 1.2-1-.3 0-.9-.4-1.7-.8-1.7-1.2 0-3.6-5.2-3.3-7 .2-1.1-.1-1.1-1.1.3-1.6 2.1-5.5 3-6.4 1.5-.4-.6-.2-.8.4-.4.6.3 1.3.2 1.7-.4.4-.6 1.2-.8 1.8-.4.7.3.4-.1-.5-.9-1-.8-1.8-1.8-1.8-2.3 0-.4.5-.3 1.2.4 2.1 2.1 2.9 1.3 1.2-1.3-.9-1.4-2.1-2.2-2.7-1.8-.6.3-.7.1-.3-.6.6-.9 1.1-.9 2.1-.1.9.7 1.6.6 2.5-.5.7-.8.9-1.5.4-1.6-.5 0 0-.5 1.1-1l2-.9-2 .3c-1.1.2-1.9.9-1.7 1.5.1.7-.2 1.2-.8 1.2-2.7 0 0-4.1 2.8-4.3 2-.1 2-.2.5-1.9-1.7-1.9-1.2-2.2 2.7-1.9 1 0 1.1-.1.3-.5-.7-.3-1.3-1-1.3-1.5 0-.6.4-.8.9-.5.5.4.8-.2.6-1.1-.2-1-.4-2.1-.4-2.5-.1-.4-.8-.5-1.6-.2-.8.4-1.5.1-1.5-.5s.5-1 1.2-.9c.7.2 1.2-.4 1.3-1.2 0-.9.9-1.5 2.2-1.4 1.3.1 2-.3 1.7-.7-.5-.8 1-1.3 2.9-1 .5.1.6-.3.2-.8-.3-.6-1.2-.8-1.9-.5-.8.3-1.6-.4-1.9-1.6-.5-1.8-.3-1.9 1-.8 1.4 1.2 1.5 1.1.5-.9-1.6-2.9-1.5-3.4.4-2.6 1.4.5 1.5.3.4-1.7-.7-1.2-.7-2-.2-1.6 1.1.7 5.1-5.1 5.7-8.3.2-1.1-.1-2.4-.7-2.7-.7-.4-.8-.2-.4.4.5.8.2 1-.8.6-1.3-.5-1.3-.8.3-2.5 1-1.1 1.7-3.2 1.6-4.8-.1-2.1.2-2.8 1.2-2.4.8.3 1 1 .5 1.7-1.5 1.9-1 4.5.7 3.8 1-.4 1.1-.7.3-1-.7-.2-1.2-.8-1.2-1.4 0-.6.7-.7 1.6-.4.9.3 1.2.2.9-.5-.4-.5-.1-1.7.7-2.6.9-1.2.9-1.5.1-.9-.7.4-1.3.3-1.3-.3 0-1 1.9-2.6 3.2-2.6.3 0 1-.4 1.5-.9s.3-.6-.4-.2c-.8.4-1.3.1-1.3-.9s.5-1.3 1.3-.9c.6.4.9.4.5-.1-.4-.4 0-1.4 1-2.1 1.3-1 1.4-1.2.2-1.1-.8.1-1.5-.3-1.5-.8 0-.6.5-1 1.1-.9 1.4.2 1.4-2.9 0-3.9-.7-.6-.4-.7.6-.3 1 .3 2.1-.1 2.5-.9.5-.7 1.1-1.4 1.6-1.4.4-.1.8-.1 1-.2 2-.6 3.8-.5 4.2.1.3.5-.4.7-1.5.5-1.1-.2-1.8 0-1.5.6.4.5 1 .7 1.5.4.4-.3 1.1.1 1.3.7.4 1 .6 1 .6 0 .1-.8.6-1 1.4-.5.6.4.3-.6-.7-2.2-1.3-2-1.4-2.6-.4-1.8.8.7 1.9.9 2.3.5.5-.4.5-.1.1.5-.4.7-.3 1.3.2 1.3 1.6 0 2.2-1.3 1.1-2.6-.7-.8-.6-1.4.2-2 .7-.4.9-.3.5.4-.3.6-.2 1.3.4 1.7.6.4.8 1.1.5 1.6-1.1 1.6.7 1 2.2-.9.8-.9 1.2-1.1.8-.5-.4.8 0 1.3 1 1.3.9 0 1.4-.4 1.1-.9-.3-.5.2-1.5 1.2-2.2.9-.7 1.4-.9 1-.5-.4.5-.3 1.5.4 2.3.6.8.7 1.3.2 1.2-.5-.1-2 .2-3.3.8-2.4 1-2.4 1-.3 1.5 1.3.4 2 .2 1.9-.5-.1-.6.3-1.2.8-1.2 2.9-.3 5.5-1.8 4.9-2.8-.5-.8-.2-.8.7 0 1.8 1.8 3.4 1.6 2-.1-.9-1.1-.9-1.6 0-2.2.8-.4.9-.3.5.4-.4.8.3 1.6 1.8 2.2 1.4.5 2.6 1.4 2.6 2 0 .6.4.9.9.5.5-.3 1.2-.1 1.6.5.8 1.3 4.5 1.3 4.5 0 0-.5-.6-.7-1.3-.4-.8.3-2.4-.4-3.7-1.4-1.8-1.4-2-2.1-1-2.7.9-.5 1.1-.4.6.3-.4.7-.3 1.2.3 1.2.5 0 1.3-.5 1.6-1 .3-.6 1.2-1 1.8-1 .7 0 .4.5-.6 1.1-1.7 1-1.5 2.9.4 2.9.6 0 .7-.5.4-1-.3-.6-.2-1 .4-1 1 0 2.7 3.8 2.3 5.2-.1.5.2.8.8.8 1.2 0 .8-4.3-.5-5.2-.5-.4 0-.6 1.3-.5 1.2 0 2.2.5 2.2 1 0 .4.5.5 1.2.1.6-.4.8-.3.4.4-.3.6-.2 1.3.3 1.6.5.4 1.2-.2 1.4-1.1.4-1.6.5-1.6.6.1.1 1.5.4 1.6 1.6.6.8-.7 1.5-1.1 1.6-.9.6 3.2.6 3.9-.4 3.9-.5 0-.8.3-.4.6.3.3 1.6-.1 2.9-1 2.6-1.8 4.8-2.1 4.8-.5 0 .5-.4.8-.8.5-1.2-.7-3.8 1.2-2.8 2.1.5.4 1.1.2 1.3-.5.3-.6.9-.9 1.4-.6.6.3.5 1.2-.3 2.2-.7 1 .1.5 1.8-1.1 2.1-1.9 3.1-2.3 3.1-1.3 0 .8-.4 1.3-.9 1-.4-.3-.5.2-.2 1 .5 1.2.9 1.3 1.9.3.7-.7 1.1-1.5.9-1.8-.2-.4.3-1 1.1-1.3 1.3-.5 1.3-.1-.1 2.5-.9 1.9-1.1 2.8-.4 2.4.9-.5 1-.1.6 1.6-.7 2.3-.7 2.4.6.3.7-1.2 2.1-2 3-1.9 1 .2 2.3-.4 2.9-1.3.9-1.5 1-1.4.4.3-1.2 3.7-1.4 5.6-.4 5 .5-.4.6-1.1.3-1.7-.5-.8-.1-.9 1-.5 1.4.6 1.6.3 1.1-1.6-.5-1.6-.4-1.8.4-.8.5.8.8 2.7.6 4.3-.2 1.5.1 3.1.7 3.4.7.4.8.2.4-.4-.4-.7-.2-1.2.4-1.2.7 0 .9-.8.5-1.9-.5-1.6-.1-1.9 1.5-1.8 2 .1 2.9 1.7 1 1.7-1.5 0-1.2 1.7.5 2.4.8.3 1.4 0 1.2-.6-.1-.6.4-1.2 1.1-1.3.7-.2.8-.1.2.2-.6.3-.6 1.2.1 2.5 1 1.8.9 2-.7 1.4-1.5-.5-1.6-.4-.7.5 1.2 1.2 3.7.3 2.9-1-.3-.4.1-.8.7-.8.7 0 1.4.9 1.4 1.9.1 1-.2 1.6-.6 1.4-.4-.3-.8.1-.8.9 0 1.1.4 1.2 1.4.4.9-.9 1.4-.7 1.9.5.3.9 1.1 1.6 1.6 1.6.6 0 .4-.8-.3-1.7-1.2-1.5-1.2-1.6.6-.9 1.1.5 2.6.9 3.3.9.6 0 1.2.5 1.2 1s-.7.6-1.6.3c-.8-.3-1.2-.2-.9.4.3.6.1 1-.6 1s-1 .2-.7.5c.9.9 6.8-1.7 6.1-2.8-.4-.6-.1-.7.7-.2 1 .6.8 1.1-.6 2.4-1.1.9-1.7 1.5-1.5 1.3.3-.1 1.3 1 2.3 2.5 1 1.6 1.8 2.3 1.8 1.6 0-1.7 3.1-.9 4.2 1.2.6 1 .6 1.5.1 1.2-.5-.3-1.5-.1-2.3.5-1.3.8-1.2.9.2.5 2.3-.8 3 .3 1.5 2.2-1 1.4-1 1.4.5.3.9-.7 1.5-2.3 1.4-3.6-.2-1.3.3-2.3 1-2.3.9 0 1 .5.4 1.7-.6 1.1-.5 2.1.2 2.8.9.9.8 1.2-.2 1.2-1.1.1-1 .3.3 1.1.9.6 1.5 1.4 1.2 2-.3.5.1.6 1 .2 1.4-.5 1.4-.8.3-1.5-1-.7-.9-.8.5-.4.9.3 1.7 0 1.7-.6s.3-.8.6-.5c.4.4-.1 1.8-1.1 3.3-.9 1.5-1.3 2.4-.7 2 .5-.3 1.7.3 2.7 1.4 1 1.1 2.3 2 2.9 2 .6 0 .4-.5-.4-1-1.3-.8-1.2-1.2.4-2.7 1.5-1.4 1.7-1.4.8-.2-1.1 1.4-.8 2 1.4 3.8 1.5 1.2 3.4 1.9 4.1 1.7 2.1-.8 1.5.2-.8 1.5-1.7.9-2 .8-1.4-.2.5-.7.4-1-.3-.5-.5.3-1.3 0-1.5-.6-.3-.8-.6-.8-.6-.2-.2 2.1 3.8 5.7 5.5 5 2.4-.9 3.7.3 2.2 2.2-1.1 1.3-1.1 1.5.4.9 1.1-.4 2.2.2 3.2 1.8 1.3 2 2 2.2 4.6 1.5 1.6-.5 3-.6 3-.2 0 .4.6 0 1.3-.8.7-.8 2-1.6 3.1-1.8 1.5-.3 1.6-.1.5 1.1-.8.8-1.7 1.3-2.1 1.1-.4-.2-.9 0-1.3.6s-1.1.7-1.7.4c-.7-.5-.8-.2-.3.6.6 1 .4 1.2-1 .7-.9-.4-2.4-.2-3.1.4-1.1.9-1.4.9-1.4 0 0-1.4-6.1-5.2-7.2-4.5-1.4.9.2 2.3 1.9 1.7 1.1-.4 1.4-.3.9.5-.5.8-.1 1 1 .5 1.3-.5 1.5-.3.9.7-.6.9-.4 1.1.5.5.9-.6 1.2-.4.8.6-.4 1.1.1 1.5 1.7 1.5 1.3 0 2.1-.4 1.8-1-.4-.5.1-.7 1.2-.2 1.1.4 2.5 0 3.8-1.1 1.9-1.8 1.9-1.7 1.2.7-.6 2.1-.3 1.9 1.7-1 1.4-1.9 2.2-4 1.8-4.5-.4-.6.4-2.8 1.8-5 1.3-2.2 2.1-3.2 1.8-2.3-.3 1-.1 1.8.4 1.8.6 0 1-.7 1-1.5 0-1.8 1.2-1.9 2.7-.4.8.8 1.3.7 1.8-.2.5-.7.4-1-.3-.5-.6.3-1.3.2-1.7-.4-.3-.5 0-1 .7-1 .9-.1.7-.5-.5-1.4-1.6-1.2-1.6-1.4-.2-2 .9-.3 1.3-1.1.9-1.7-.4-.7-.3-.9.4-.5.5.3 1.3 0 1.5-.6.4-1 .6-1 .6-.1.1.7.6 1.3 1.2 1.3s.8-.8.4-1.9c-.8-2.6 2-4.8 4-3.1 1.3 1.1 1.4 1 .9-.5-.5-1.2-.4-1.6.4-1.1 1.8 1.1 2.2-1 .7-3-1.2-1.5-1.4-1.5-.9-.3.3 1 .1 2-.5 2.4-.7.4-1-.2-.7-1.7.2-1.7.9-2.2 2.5-2 1.2.2 2.4-.3 2.7-1.2.3-.9 1-1.3 1.5-1 .9.5 1.3-.9 1-3.4-.1-.7.5-1.5 1.4-1.8.8-.3 1.5-1 1.5-1.6 0-.5-.4-.7-.8-.4-.5.3-.9-.1-.9-.9 0-1 .5-1.1 1.8-.5 1.2.7 2.1.5 3-.7.8-.9 1.3-1.8 1.2-2-.7-.9-.2-2.4.6-1.9 1.1.7 3.2-4.9 2.3-5.9-.4-.4 0-.5.8-.3s1.4-.3 1.2-1c-.1-.8.2-1.1.8-.7.8.5.6 1.3-.5 2.5-1.3 1.4-1.4 2-.3 2.6.7.4 1 .4.6-.1-.4-.4-.1-1.3.6-2.1.7-.7 1.2-2.4 1.1-3.8-.2-1.7.1-2.3 1-1.9.8.2 1.1 1.2.9 2.1-.5 1.4-.4 1.4.6-.1.6-.9 1.5-1.5 2-1.2.7.4.7-.3.1-3.4-.1-.2-.7.2-1.5.8-1 .8-1.6.9-2.1.1-.4-.6-.1-.9.7-.8.7.2 1.2-.3 1-1-.1-.8.2-1.1.7-.8.5.4 1.2.2 1.6-.4.3-.5 0-1-.7-1-.8 0-.6-.5.5-1.1.9-.6 1.5-1.4 1.2-1.9-.3-.5 0-1.2.6-1.6.8-.4.9-.3.5.4-.9 1.6.7 1.5 2.2 0 .6-.6 1.4-.9 1.8-.5.3.3-.7 1.4-2.2 2.4-3.5 2.2-4.1 4.5-1.7 6.4 1.5 1.1 1.6 1.1.6-.1-1.8-2-1.6-3.3.5-2.5 1.3.5 1.4.4.5-.6-.9-.9-.7-1.6 1.2-3.1 2.5-1.9 2.4-5.1-.1-4.1-.8.3-1.4.3-1.4 0 0-1.4 3.2-1.4 4.7.1 1.6 1.6 1.7 1.6 1 0-.4-1.2.1-2.3 1.6-3.3 1.2-.8 1.6-1.5 1-1.5-.6 0-1.6.7-2.3 1.5-1.3 1.6-3 1.1-3-.8 0-.7.4-.6 1 .3.9 1.3 1.4.7 1.1-1.3 0-.4.2-.6.6-.5 1.6.4 5.3-1.4 5.3-2.5 0-.7.4-.6 1 .3.5.8 1 1 1 .4s-.8-1.8-1.7-2.5c-1.4-1.2-1.6-1.2-.8 0 .5 1 .4 1.2-.4.7-.8-.6-.9-1.2-.2-2 .6-.7.7-1.7.3-2.1-.4-.5-.1-.5.6-.1.9.5 1.5.1 1.9-1.3.3-1.2.9-2.1 1.4-2.1.5 0 .8.3.7.7-.2.5.2.8.7.8.6 0 .8-.5.7-1-.9-2.5-1-4.5-.2-4.5.4 0 1.1.7 1.4 1.6.4 1 .2 1.3-.6.8-.7-.4-.8-.3-.4.4 1.1 1.8 2.9 1.4 2.2-.4-.3-.8-.2-1.3.3-1 1.4.9 3.2-1.9 2.5-3.8-.3-.9-.2-1.6.4-1.6.6 0 1.2.6 1.5 1.2.3.7.4.3.4-.9-.1-1.2-.4-2-.7-1.8-.3.2-.6-.5-.6-1.5s.3-1.8.6-1.7c.3.1.6-.3.8-.8.1-.6-.2-1-.7-1-.5 0-1.2-.3-1.5-.6-.3-.3.2-.6 1.2-.6 2.2 0 3.4 1.8 2.2 3.2-.7.8-.5 1.2.5 1.2.8 0 1.2-.4.9-.8-.2-.4.4-1 1.3-1.2 1.7-.4 1.7-.5.1-.6-1 0-1.8-.6-1.8-1.1 0-.9 1.5-1.4 3.3-1.1.5.1.6-.3.2-.8-.3-.6-1.3-.7-2.3-.4-1.5.6-1.5.5-.3-1.1 1.2-1.5 1.2-1.7 0-1.4-.8.2-1.3-.3-1.1-1 .1-.8-.2-1.1-.8-.7-.6.3-.8 1.1-.5 1.6.3.5-.1.6-1 .3-1.3-.5-1.2-.9.6-2.5 2.2-1.9 1.6-2.4-2-1.9-1.3.1-1.3-.1-.2-1.4.7-.9 1.8-1.3 2.5-.9.6.3.7.2.3-.3-.5-.5-1.4-.9-2-.9-.7-.1-1.1-.7-.9-1.4.1-.7-.2-1-.8-.6-.6.3-.8 1-.6 1.4.3.4-.1.8-.9.8-1.3 0-1.2-.4.1-2.6l1.7-2.6-2.1 1.9c-1.2 1.1-2.2 1.4-2.2.8 0-.6 1-1.8 2.3-2.7 2-1.5 2-1.6.2-1.3-1.3.2-1.9-.2-1.7-1.1.3-1.2 0-1.2-1.3-.1-2.2 1.8-3 .6-.9-1.5 1.6-1.6 1.6-1.6-.2-1.3-1.4.2-1.9-.3-1.8-1.8 0-1.5-.4-2-1.3-1.7-1.1.4-1.1 1 .2 2.9 1.3 2.1 1.3 2.3 0 1.8-.8-.4-1.5-1.2-1.5-2 0-1.5-1.1-1.8-2.6-.7-.5.5.1-.2 1.3-1.4 1.3-1.2 1.9-2.5 1.3-2.8-.6-.3-1-.1-1 .4 0 .6-.5 1.1-1.1 1.1-.5 0-.7-.5-.4-1 .3-.6 0-1-.7-1-.9 0-.9-.3.2-1 2-1.2-3-.8-5 .5-1.3.8-1.3.6-.1-.8.7-.9 1.7-1.4 2.2-1.1.5.3.9 0 .9-.7 0-.6-.8-.9-1.9-.6-1.4.3-1.7 0-1.4-1.4.4-1.4.1-1.8-.9-1.4-2 .8-4.4-2-2.7-3.1.8-.5.9-.3.4.6-.6.9-.4 1.1.5.5.9-.5 1.1-.4.6.3-.5.8-.2 1 .8.6 1.9-.7 2.1-2.5.4-2.2-.7.2-1.2-.3-1-1.1.3-1.2 0-1.2-1.2-.2s-2 .9-4-.6c-1.4-1-2.6-2.2-2.6-2.7s1.1.1 2.4 1.3c1.6 1.5 2.6 1.9 3.1 1.1.4-.6.4-1.4.1-1.7-.3-.4-.6-.1-.6.6s-.5.9-1 .6c-.6-.4-.8-1.1-.4-1.6.3-.5 0-.8-.8-.7-.8.2-1.3-.6-1.2-1.9.1-1.3-.3-2-.7-1.7-.5.3-.7 1-.4 1.5.4.5-.1.9-1 .9-1.7 0-1.7-2.9 0-4.3.6-.5.4-.7-.5-.4-.8.2-1.4.9-1.3 1.5.1.5-.7 1.2-1.8 1.5-1.6.4-1.8.3-.8-.9 1.2-1.4.8-1.7-3.2-1.7-.9 0-1.6-.6-1.6-1.3 0-.7.4-1.1.8-.9.4.3 1-.2 1.3-1.1.8-2.1.8-2.4-.5-2.4-.5 0-.7.4-.4 1 .3.5.1 1-.4 1-.6 0-1.1-.5-1.1-1.1 0-.5-.4-.8-.8-.5-.4.2-1.4 0-2.2-.6-1.3-.8-1.3-.9 0-.5.8.2 2.4 0 3.5-.4l2-.9-2 .1c-3.8.2-4.6-.1-3.9-1.4.5-.8.2-.8-.9.2-1.2.9-1.7 1-1.7.2 0-.9-.6-.9-2.2-.1-2.2 1.1-2.2 1-.4-.4 1-.9 2.2-1.3 2.6-1.1.4.2.7-.2.7-1s-.4-1.2-.9-.9c-.5.3-1.9.3-3.2 0-2.3-.6-2.8-2.8-1.1-5.6.7-1.3.6-1.3-.7-.2-1.4 1.1-1.7 1-2-.5-.3-1.5-.5-1.5-1 .4-.3 1.2-.3 2.1.1 2 .7-.2 1.1.7 1.1 2.5 0 .7-.7.2-1.6-1-.8-1.2-1.2-2.7-.9-3.2 1.2-1.9-.5-3.1-2.7-1.9-1.5.8-1.9.8-1.4 0 .4-.6 0-1.4-.8-1.7-.9-.3-1.6-1.2-1.6-1.9 0-2.1-1.7-2.7-2.4-.9-.3.8-.2 1.2.4.9.6-.3 1-.2 1 .3s-1.1.9-2.4.9c-2.2 0-2.3-.1-1-1.4.7-.8 1.4-2.2 1.3-3.1 0-1.2-.3-1.1-.9.5-.5 1.3-1.2 2.3-1.6 2.3-.3 0-.4-.7-.1-1.5.4-.8.1-1.7-.5-2.1-.6-.4-.8-.3-.5.3.4.6-.1 1.7-1 2.4-1.5 1.2-1.6 1.2-.8-.1 1.9-3.1 1.5-4.8-1-4.8-1.4 0-2.2.5-1.9 1 .3.5-.3.4-1.5-.4-1.2-.7-2.1-1.6-2.1-2.1 0-.4.4-.6.8-.3.5.3.9-.1.9-.9s-.4-1.2-.8-.9c-.4.2-1 0-1.4-.6-.3-.6-1.7-.8-3-.6-1.9.4-2.2.1-1.8-1.2.6-1.5.5-1.5-1-.3-.9.7-1.4 1.8-1.1 2.5.3.6 0 .4-.8-.5-.7-.9-2-1.4-2.8-1.2-1 .3-.9.1.3-.7 2.3-1.5 2.3-3.4-.1-2.1-1.1.6-2.4.6-3.3 0-1-.6-1-.9-.1-.9.6 0 1.2-.4 1.2-.9 0-.4-1.3-.7-3-.5-1.6.2-3-.1-3-.6 0-1 .7-1.2 5.2-1.2 1.5-.1 2.5-.4 2.3-.8-.3-.5-1.5-.6-2.7-.2-1.8.4-2 .2-1.5-1.4.7-1.8.7-1.8-.8 0-.8 1.1-1.5 1.6-1.5 1-.1-.5-.7.2-1.6 1.6-1.3 2.2-1.4 2.2-.9.3.3-1.2.1-2.5-.6-2.9-.8-.5-.9-.3-.4.6.5.8.4 1.1-.3.6-.5-.3-1.3 0-1.5.6-.4 1-.6 1-.6 0-.1-.6-.6-1.2-1.2-1.2-.5 0-.7.4-.4 1 .3.5.1 1-.5 1-.7 0-1-.6-.7-1.4.3-.7 0-2-.6-2.7-1-1.1-.9-1.1.6 0 .9.7 1.7 1 1.7.5s.5-.2 1 .6 1 1 1 .4c0-1.5-2.1-3.1-4-2.9-.8.1-2.4-.3-3.5-.9-1.1-.6-2.4-1-2.8-1.1-.4 0-1.2-.6-1.6-1.4-.5-.8-1.4-1-2.2-.6-.8.6-1.1.4-.7-.7.4-.8.1-1.5-.7-1.5-.7 0-1 .8-.7 1.9.3 1.2 1 1.7 1.9 1.4.9-.4 1.1-.2.7.6-.4.7-.3.8.4.4s1.2-.2 1.2.4c0 .7-.7 1-1.4.7-1.1-.4-1.3-.1-1 1.1.3.9-.1.6-.9-.7-1.1-1.8-1.6-2.1-2.1-1-.3.8-.3.4 0-.9.4-1.8.1-2.5-1.4-2.9-1.2-.3-1.8-1.1-1.6-1.8.3-.7.1-1.6-.5-2-.7-.4-.8 0-.4 1.1.5 1.3.3 1.5-.8.8-.8-.4-2.3-1-3.4-1.1l-2-.3 2 1.2c1.1.7 2.4 1.3 2.9 1.3 1.5 0 1.5 3.2 0 3.2-.7 0-1.1-.4-.8-.8.7-1.2-4.8-3.6-7.7-3.3-1.9.2-3-.5-4.2-2.5-.9-1.6-1.3-3.1-1-3.5.4-.4-.1-.4-1.1 0-1.2.4-1.7.4-1.3-.2.3-.5-.3-1-1.4-1-1.8 0-1.8.2-.5 1.2.9.6 1.3 1.4.9 1.7-.3.4-1.3.1-2.1-.6-.9-.6-1.3-.8-1-.2.6 1-1 2.9-2.8 3.2-.5.1-1-.7-1-1.7 0-1.4.3-1.6 1.3-.8.9.7 1.3.7 1.3-.1 0-.6-.5-1.1-1.1-1.1-.5 0-.7-.6-.3-1.3.6-.9.4-.9-.7-.1-.8.6-2.5 1-3.9.8-2-.3-2.2-.2-1 .7 1.3.9 1.2 1-.2.5-1.2-.4-1.8 0-1.9 1.2 0 1.4-.2 1.4-.7.2-.4-.8-1.5-1.6-2.6-1.8-1.3-.2-1.6.1-1 1 .6 1 .5 1-.9 0-.9-.8-2.1-1.1-2.6-.7-.7.3-.8 0-.5-1 .5-1.2.2-1.4-1.2-.8-1.7.6-1.8.5-.4-1.3 1.4-1.7 1.4-1.8-.2-.6-1.1.9-1.8 1-2.3.2-.8-1.3-2.5-1.3-2.5.1 0 .5.5.7 1.2.3.7-.5.8-.3.3.6-.6.9-.4 1.1.6.5 1.2-.7 1.2-.6 0 .6-1 1.1-1.5 1.1-1.8.1-.3-.6-.9-1-1.3-.7-.5.3-1.2 0-1.6-.6-.5-.8-.3-.9.7-.4.8.5 1.1.5.7 0-.4-.4-.3-1.4.3-2.2.6-.7.7-1.3.3-1.3-.5 0-1.5.9-2.2 2-.7 1.1-1.8 2-2.4 2-.9 0-.9-.3 0-1.2.7-.7 1.2-1.7 1.2-2.3 0-.5-.5-.2-1.1.7-.5 1-1.5 1.8-2.1 1.8-.6 0-.5-.7.3-1.8 1.2-1.5 1.2-1.6-.2-.5-.8.7-2.4 1.1-3.5.9-1-.2-1.3-.1-.6.1.7.3 1 .9.7 1.4-.3.5 0 .6.8.3s1.9.1 2.5.9c.9 1.1.8 1.4-.3 1.4-.8 0-1.1-.5-.8-1 .4-.6 0-.8-.9-.4-.9.3-2.1 0-2.7-.6-.9-.9-1.1-.7-.6.8.4 1.1.3 1.6-.2 1-.4-.6-2.2-1-4-1-1.7.1-3.2-.1-3.1-.4.2-1.7-.3-3.1-1-3.1-.5 0-.8 1-.7 2.2.2 2.1 3.2 4 4.9 3 .5-.3.6 0 .2.6-.7 1.1-3.1.7-5.2-.9-.6-.5-1.4-.6-1.7-.2-.4.3-.7 0-.7-.8 0-1.2-.2-1.1-1.1.1-.9 1.3-1 1.3-.6 0 .2-.8 1.2-1.4 2.2-1.2 1.1.2 1.4-.1 1-.8-.4-.6-1.3-.9-2.1-.6-.8.3-1.8-.2-2.1-1-.5-1.4-.7-1.4-1.7.2-.6 1.1-1.8 1.9-2.6 1.9s-1.5.8-1.5 1.7c0 .9-.4 2-.8 2.5-.5.4-.8.3-.7-.2.7-3.2 0-3.8-2.2-1.9-1.3 1-1.8 1.2-1.1.4.8-1.1.8-1.8-.1-2.5-1.8-1.7-4.6-1.7-4.6-.1 0 .8-.5 1.8-1.2 2.2-.7.4-.8.3-.4-.4s.2-1.2-.5-1.2c-.6 0-.9-.8-.6-2 .6-2.2.2-2.6-.8-.9zm18.2 2.8c-.1 1.3-.7 1.8-2 1.5-1.1-.2-2.2-.6-2.6-1-.3-.4.2-.4 1.2-.1 1.1.4 2 .1 2.3-.8.8-2.1 1.3-1.9 1.1.4zm-11.2.9c-.3.3-1.1 0-1.8-.7-.9-1-.8-1.1.6-.5 1 .3 1.5.9 1.2 1.2zM345 91.5c-.8 1-.8 1.4.2 1.7.7.3.5.7-.7 1.2-1.1.4-1.6.4-1.3 0 .4-.3-.3-1.5-1.5-2.5-1.4-1.3-1.6-1.7-.6-1.3 1 .3 2 0 2.4-.5.3-.6 1.1-.9 1.6-.5.6.4.6 1.1-.1 1.9zm-10 .5c0-.5.4-1 .8-1 .5 0 .9.7.9 1.5s-.4 1.2-.9.9c-.4-.3-.8.1-.8.8 0 .9-.3.9-1-.2-.5-.8-1-1.1-1-.6 0 .5-.8.2-1.7-.5-1.2-1-1.5-1-.9-.1.4.7 0 1.9-.8 2.8-.9.8-1.6 1.2-1.7.7 0-.4-.2-1.6-.4-2.6-.2-.9.1-1.5.6-1.1.5.3 1.2-.2 1.5-1.1.6-1.4.9-1.4 3 0 1.3.8 2.4 1.1 2.4.5zm24.5 0c.3.6-.1.7-.9.4-1.8-.7-2.1-1.4-.7-1.4.6 0 1.3.4 1.6 1zm38 0c-.3.5-1.2 1-1.8 1-.7 0-.6-.4.3-1 1.9-1.2 2.3-1.2 1.5 0zm6.5-.6c0 .3-.4.8-1 1.1-.5.3-1 .1-1-.4 0-.6.5-1.1 1-1.1.6 0 1 .2 1 .4zm15 1.1c0 .8-.4 1.5-1 1.5-.5 0-.7-.7-.4-1.5.4-.8.8-1.5 1-1.5.2 0 .4.7.4 1.5zm11.4 1.1c.4.9.4 1.9.1 2.2-.2.3-.7-.3-1.1-1.2-.3-.9-1-1.3-1.6-1-.5.3-.4 1.1.3 2 .7.8.7 1.4.1 1.4-.5 0-1.3-.8-1.6-1.7-.6-1.5-.8-1.5-1.7-.3-.9 1.3-1 1.3-.6 0 .2-.8.9-1.5 1.5-1.5.5 0 1.4-.3 1.8-.8 1.2-1.1 2.1-.8 2.8.9zm-80.4 0c0 .8-1.9 1.3-2.4.6-.3-.5.1-.9.9-.9s1.5.2 1.5.3zm-11 2c0 .8-1.9 1.3-2.4.6-.3-.5.1-.9.9-.9s1.5.2 1.5.3zm80 0c0 .8-1.9 1.3-2.4.6-.3-.5.1-.9.9-.9s1.5.2 1.5.3zm-110 5c0 .2-.7.4-1.5.4s-1.5-.4-1.5-1c0-.5.7-.7 1.5-.4.8.4 1.5.8 1.5 1zm132-.6c0 .5-.5 1-1.1 1-.5 0-.7-.5-.4-1 .3-.6.8-1 1.1-1 .2 0 .4.4.4 1zm8-.6c0 .3-.4.8-1 1.1-.5.3-1 .1-1-.4 0-.6.5-1.1 1-1.1.6 0 1 .2 1 .4zm-143.3 4.8c-.3.8-.6.5-.6-.6-.1-1.1.2-1.7.5-1.3.3.3.4 1.2.1 1.9zm152.6.4c-.4 1.2-.8 1.3-1.4.3-.9-1.5-.2-3.2 1.1-2.4.5.3.6 1.3.3 2.1zm3 .8c.4 1 .1 1.3-.8.9-.8-.3-1.2-.9-.9-1.4.7-1.2 1.1-1.1 1.7.5zm28.2 12.6c.4.6-.1.7-1.2.3-1.6-.6-1.7-.5-.3 1.2s1.4 1.7-.7.4c-1.6-.9-1.9-1.6-1-2.1 1.6-1 2.5-1 3.2.2zm-229.7 7.1c-.3.8-.7.3-1.1-1-.4-1.7-.3-2.1.5-1.3.5.5.8 1.6.6 2.3zm236.5-1.6c-.3.9-.8 1.4-1 1.1-.3-.3-.2-.9.2-1.5.9-1.6 1.5-1.3.8.4zm13.8 10.2c-1.2 2-1.4 1.4-.5-1.2.4-.9.9-1.4 1.1-1.1.3.2 0 1.3-.6 2.3zm-266.6 1.2c.3.5.2 1.2-.3 1.5-.5.3-.9-.1-.9-.9 0-1.7.3-1.9 1.2-.6zm-7.9 9.3c.4.7.2.8-.4.4-.6-.4-2.1-.2-3.2.4-1.5.8-1.8.8-1.5-.3.7-1.6 4.2-2 5.1-.5zm-18.8 16.3c-.3.3-.9-.2-1.2-1.2-.6-1.4-.5-1.5.5-.6.7.7 1 1.5.7 1.8zm320 0c-.3.3-.9-.2-1.2-1.2-.6-1.4-.5-1.5.5-.6.7.7 1 1.5.7 1.8zm3.7 1.4c.3.5.2 1.2-.3 1.5-.5.3-.9-.1-.9-.9 0-1.7.3-1.9 1.2-.6zm3.6 4.8c1.3 1.6 1.2 1.7-.3.4-1-.7-1.8-1.5-1.8-1.7 0-.8.8-.3 2.1 1.3zm-339.4 5.2c0 1.1-.5 1.8-.9 1.5-.4-.3-.5-1.1-.1-1.9.7-2.1 1.2-1.9 1 .4zm345.9.2c.3.6.1 1.6-.6 2.2-1 .9-1.1.9-.5-.2.4-.8.2-1.7-.6-2.2-.9-.6-1-.9-.2-.9.6 0 1.5.5 1.9 1.1zm5.9 7.9c.3.5.1 1-.4 1-.6 0-1.1-.5-1.1-1 0-.6.2-1 .4-1 .3 0 .8.4 1.1 1zm-358.8 1.2c-1 .5-1.5 1.3-1.2 1.8.3.4-.7 1.5-2.1 2.5l-2.5 1.6 1.6-2.5c.9-1.4 1.5-2.9 1.2-3.3-.3-.4.7-.9 2.1-1 2.2-.1 2.3 0 .9.9zm363.8.8c.3.5-.1 1-1 1s-1.3-.5-1-1c.3-.6.8-1 1-1 .2 0 .7.4 1 1zm8.2 15.4c0 .8-.8 1.1-2.1.8-1.9-.5-1.9-.6 0-1.3 1-.4 1.9-.8 2-.8 0-.1.1.5.1 1.3zM184 203.7c0 .3-.6.3-1.4 0-.7-.3-2 0-2.7.6-1.1 1-1.1.9 0-.5 1.1-1.5 4.1-1.5 4.1-.1zm380.3 7.4c-.6.6-1.5.3-2.4-.7-.9-1.2-1-1.5-.1-1 .8.5 1.2.1 1.2-1.1.1-1.7.1-1.7 1.1 0 .7 1.2.8 2.2.2 2.8zm-10.7 12.6c-1 1-4.6 1.4-4.6.5 0-.4 1.2-.9 2.7-1 1.4-.1 2.3.1 1.9.5zM377.5 240c.3.5.1 1-.4 1-.6 0-1.1-.5-1.1-1 0-.6.2-1 .4-1 .3 0 .8.4 1.1 1zm30.9 5c-.5.5-1-.3-1.1-1.8-.1-2.2 0-2.4.9-.8.6 1 .6 2.2.2 2.6zm-54.1-1.5c-.3.9-.8 1.4-1 1.1-.3-.3-.2-.9.2-1.5.9-1.6 1.5-1.3.8.4zm60.5 2c-.3.3-.9-.2-1.2-1.2-.6-1.4-.5-1.5.5-.6.7.7 1 1.5.7 1.8zm-66.1 3.7c-.3.8-.6.5-.6-.6-.1-1.1.2-1.7.5-1.3.3.3.4 1.2.1 1.9zm74.3.6c0 .5-.7.9-1.5.9s-1.2-.4-.9-.9c.3-.4.9-.8 1.5-.8.5 0 .9.4.9.8zm-74.8 6.2c-1.1 1.8-2 2.6-2.6 2-.6-.6-.3-1.7 1-2.9 2.8-2.9 3.5-2.5 1.6.9zm178.4-.5c0 1.4-.4 2.5-.8 2.5-.6 0-.5-2.5.1-4.8.3-1 .7.2.7 2.3zm-83.1 4.4c.3.5.2 1.2-.3 1.5-.5.3-.9-.1-.9-.9 0-1.7.3-1.9 1.2-.6zm4 .1c-.3.5-1.2 1-1.8 1-.7 0-.6-.4.3-1 1.9-1.2 2.3-1.2 1.5 0zm73.5 1c0 .5-.2 1-.4 1-.3 0-.8-.5-1.1-1-.3-.6-.1-1 .4-1 .6 0 1.1.4 1.1 1zm-364 4.6c0 .8-1.9 1.3-2.4.6-.3-.5.1-.9.9-.9s1.5.2 1.5.3zm363.1.3c-.7.5-1.7 1.5-2.2 2.2-.6 1-.8.8-.7-.7.1-1.2 1-2.1 2.2-2.2 1.5-.1 1.7.1.7.7zm-66.7 1.6c-.5 1.1-.1 1.4 1.2.9 1.6-.5 1.6-.4.4.5-1.7 1.2-3.6-.1-2.6-1.8 1-1.6 1.6-1.3 1 .4zm56.7 5.2c1.3 1.6 1.2 1.7-.3.4-1.7-1.3-2.2-2.1-1.4-2.1.2 0 1 .8 1.7 1.7zm-168.8 2.9c-.3.8-.9 1.4-1.5 1.4-.5 0-.7.4-.3.9.6 1-1.1 2.4-3.2 2.7-.7.1-1.3-.2-1.3-.8 0-.6.7-.8 1.5-.5.8.4 1.7.2 2-.3.4-.6 0-1-.7-1-.8 0-.6-.5.5-1.1.9-.6 1.5-1.5 1.2-2-.4-.5-1.1-.6-1.7-.3-.6.4-.8.2-.5-.4 1-1.5 4.7-.3 4 1.4zm123.4-1c-.3.3-1.2.4-1.9.1-.8-.3-.5-.6.6-.6 1.1-.1 1.7.2 1.3.5zm.3 1.8c0 .2-.7.7-1.6 1-.8.3-1.2.2-.9-.4.6-1 2.5-1.4 2.5-.6zm4 5.6c0 .5-.4 1-.9 1-.6 0-1.3-.5-1.6-1-.3-.6.1-1 .9-1 .9 0 1.6.4 1.6 1zm-134 1.4c0 .3-.4.8-1 1.1-.5.3-1 .1-1-.4 0-.6.5-1.1 1-1.1.6 0 1 .2 1 .4zm-.6 8.1c.3.8.1 1.5-.4 1.5-.6 0-1-.7-1-1.5s.2-1.5.4-1.5.6.7 1 1.5zM477 291c0 .5-.2 1-.4 1-.3 0-.8-.5-1.1-1-.3-.6-.1-1 .4-1 .6 0 1.1.4 1.1 1zm-145.9 9.7c.2-.1.3 0 .1.2-.6 1.1-3.9.6-3.9-.5 0-.9.5-1 1.7-.4 1 .5 1.9.8 2.1.7zm-2.6 7.1c-.3.3-1.1 0-1.8-.7-.9-1-.8-1.1.6-.5 1 .3 1.5.9 1.2 1.2zM143 321c0 .5-.5 1-1.1 1-.5 0-.7-.5-.4-1 .3-.6.8-1 1.1-1 .2 0 .4.4.4 1zm186 3.1c1.1 1.9 1 2-1 .9-1.1-.6-1.8-1.5-1.5-2.1.9-1.3 1.3-1.1 2.5 1.2zm-2.6 1.7c.3.5-.1.9-.9.9s-1.2-.4-.9-.9c.3-.4.7-.8.9-.8.2 0 .6.4.9.8zm15 5.7c-.4.8-1.1 1.5-1.6 1.5-.6 0-.5-.6.2-1.5.7-.8 1.4-1.5 1.6-1.5.2 0 .1.7-.2 1.5zm28 17.4c.4.5-.3.7-1.4.4-2.3-.6-2.6-1.3-.6-1.3.8 0 1.7.4 2 .9zm-227.1 19.5c.4 1 .1 1.3-.9.9-1.5-.6-1.9-2.3-.5-2.3.5 0 1.1.7 1.4 1.4zm3.7 21c0 .2-.9.6-2 .9-1.1.3-1.8.1-1.4-.4.5-.9 3.4-1.3 3.4-.5zm-2 9.6c-.8.5-1.8.6-2.2.4-.4-.3-.8 0-.8.6s-.5.8-1.1.4c-1.4-.8.2-1.9 3.3-2.1 1.7-.2 1.9 0 .8.7zm-1.3 3.5c0 .8-.4 1.2-.9.9-.5-.3-.6-1-.3-1.5.9-1.3 1.2-1.1 1.2.6zm352.5-.8c-.6.2-.9 1-.6 1.5.4.7.2.8-.5.4-1.3-.9-.5-2.6 1.2-2.5.9 0 .8.2-.1.6zm-133.6 4.2c-.4.5 0 1.1.6 1.4.8.2.9.8.4 1.3s-1.1.4-1.3-.4c-.3-.6-1-.9-1.6-.5-.7.4-.6-.1.2-1 1.4-1.8 2.6-2.3 1.7-.8zm147.8 8.7c.8 2.1.8 2.1-1 2.8-1.3.5-1.4.4-.6-.7 1.4-1.7.6-2.7-1.6-2-1.5.4-1.5.3-.2-.6 2-1.5 2.7-1.4 3.4.5zM360 417.7c0 .7-3.9-1.7-4.6-2.8-.3-.6.5-.3 2 .6 1.4 1 2.6 1.9 2.6 2.2zm153.5.3c.3.5.1 1-.4 1-.6 0-1.1-.5-1.1-1 0-.6.2-1 .4-1 .3 0 .8.4 1.1 1zm-2.8 1.5c0 .8-.4 1.2-.9.9-.5-.3-.6-1-.3-1.5.9-1.3 1.2-1.1 1.2.6zm7.8 5.3c-.3.3-1.1 0-1.8-.7-.9-1-.8-1.1.6-.5 1 .3 1.5.9 1.2 1.2zm-51.5.6c0 .3-.4.8-1 1.1-.5.3-1 .1-1-.4 0-.6.5-1.1 1-1.1.6 0 1 .2 1 .4zm-374.3 6.1c0 1.7-1.3 2-2.1.6-.4-.5 0-1.2.6-1.4.7-.3 1.3-.6 1.4-.6 0-.1.1.6.1 1.4zm433.4 5.2c1.3 1.6 1.2 1.7-.3.4-1.7-1.3-2.2-2.1-1.4-2.1.2 0 1 .8 1.7 1.7zm-78.4 1c-.4.3.1 1.1 1 1.8 1.4 1.1 1.4 1.2-.3 1-1.1 0-2.5-.5-3.3-.9-1-.7-1.2-.3-.6 1.3.4 1.3.2 2.1-.5 2.1-.6 0-.9-.4-.5-.9.3-.5.1-1.2-.5-1.6-1.7-1.1-1.1-2.4 1-2 1.1.2 2.2 0 2.5-.6.4-.5.9-.9 1.2-.9.4 0 .3.3 0 .7zm-388.6 3c-.8 1.5-1 1.5-1.1.2 0-1.7 1-3.2 1.8-2.5.2.3-.1 1.3-.7 2.3zm3.3.9c.3.8.2 1.2-.4.9-.6-.3-1-1-1-1.6 0-1.4.7-1.1 1.4.7zm471.6 2.2c0 .5-.7.9-1.5.9s-1.2-.4-.9-.9c.3-.4.9-.8 1.5-.8.5 0 .9.4.9.8zm-98.3 1.7c0 .8-.4 1.5-.9 1.5-1 0-1.1-1.4-.1-2.3.9-1 1-.9 1 .8zm-7.9 3.1c-.7 1.5-1.4 2.1-1.6 1.5-.2-.6-.9-.8-1.4-.5-.7.4-.8.2-.4-.5.4-.6 1.1-.9 1.6-.6.4.3 1-.2 1.4-1 .3-.8.8-1.5 1-1.5.3 0 0 1.2-.6 2.6zm-372-.3c1.4-.4 1.4-.3.3.5-1.3.9-1.3 1.3-.1 2.9.8 1 .2.7-1.2-.7s-2.3-2.9-2-3.5c.3-.5.7-.4.9.2.3.7 1.2.9 2.1.6zm483.7-.3c.3.5.1 1-.4 1-.6 0-1.1-.5-1.1-1 0-.6.2-1 .4-1 .3 0 .8.4 1.1 1zm7.9 8.2c-.2.4 0 .9.6 1.3 1.5.9 3.2 4.5 2.2 4.5-.6 0-1.2-.9-1.5-2-.4-1.4-1.1-1.8-2.4-1.4-1.3.4-1.4.3-.5-.4 1.1-.7 1-1-.3-1.6-.9-.3-2.1-.3-2.7 0-.6.4-.6-.1.1-1.3.6-1.1.7-2.4.3-2.8-.4-.5.5 0 1.9 1.1 1.5 1 2.5 2.2 2.3 2.6zm-187.8-.6c1.4-.3 2 .1 2 1.4 0 1.7-.3 1.7-2.7.5-1.4-.8-2.9-1.1-3.3-.8-.3.4-.6-.2-.6-1.2 0-1.3.3-1.5 1.3-.6.8.6 2.2.9 3.3.7zM401 457c0 .4-.6 1-1.4 1.3-1.2.5-1.4-.2-.7-3.1.2-.7 2.1 1 2.1 1.8zm-34.7.7c-.3.7-.6 1.3-.8 1.3-.2 0-.5-.6-.8-1.3-.3-.8.1-1.4.8-1.4.7 0 1.1.6.8 1.4zm24.1 1.5c-.3.4-1.1.8-1.7.7-.9 0-.9-.2 0-.5.7-.3.9-1.3.6-2.2-.4-1.4-.3-1.4.5-.2.6.8.8 1.8.6 2.2zm-4-.3c.4.5-.4.7-1.6.3-1.6-.4-1.9-.2-1.3.8.5.9.4 1.1-.4.6-.6-.4-.9-1.2-.6-1.7.8-1.2 3.2-1.2 3.9 0zm6.6 1.1c0 .5-.5 1-1.1 1-.5 0-.7-.5-.4-1 .3-.6.8-1 1.1-1 .2 0 .4.4.4 1zm-332 4.1c0 .5-.5.9-1.2.9-.6 0-.8-.3-.5-.7.4-.3.1-1.3-.6-2.2-1.1-1.4-1-1.4.6-.2.9.7 1.7 1.7 1.7 2.2zm491.6.5c.2 2.3.1 2.4-1.1.7-1-1.3-1-2-.2-2.5.7-.4 1.2-.8 1.2-.8s.1 1.1.1 2.6zm13.9 17.4c.3.5.1 1-.4 1-.6 0-1.1-.5-1.1-1 0-.6.2-1 .4-1 .3 0 .8.4 1.1 1zm3.7.8c-.7.2-.9.9-.6 1.4.4.7.2.8-.4.4-.6-.4-.9-1.3-.6-2.1.4-.8 1.1-1.2 1.7-.8.8.5.7.8-.1 1.1zm-498.9 4.3c-.4 1.5-.8 1.7-1.4.8-.6-1.1.4-2.8 1.8-2.9 0 0-.1.9-.4 2.1zm3.2.9c.3.6-.1.7-.9.4-1.8-.7-2.1-1.4-.7-1.4.6 0 1.3.4 1.6 1zm0 3c-.3.5-.1 1 .6 1s1 .3.6.6c-.9.9-2.8-.6-2.2-1.7.4-.5.8-.9 1.1-.9.3 0 .2.4-.1 1zm498.5 1c0 .5-.5 1-1.1 1-.5 0-.7-.5-.4-1 .3-.6.8-1 1.1-1 .2 0 .4.4.4 1zm-495.6 2.5c-.4.8-1.1 1.2-1.6.9-.6-.4-.5-1 .3-1.5 1.9-1.2 1.9-1.1 1.3.6zm494.2 7.2c-.3.4-.6.1-.6-.6s-.4-.9-1-.6c-.6.4-.7-.1-.3-1.1.6-1.5.7-1.5 1.5.1.6.9.7 1.9.4 2.2zM86 506.1c0 1.1-2.9 1.9-3.4 1-.3-.5-.3-1-.1-1.3.8-.7 3.5-.5 3.5.3zm2.1 2.2c-1.5 1.5-1.4 3 .1 2.1.7-.4.8-.3.4.4-.8 1.3 2.7 3.5 4 2.4.5-.4.2.1-.5 1-.7 1-1.6 1.8-1.9 1.8-.3 0-.2-.3.1-.7.4-.3-.2-1.2-1.3-2-2.6-1.8-4.6-5.4-2.8-5.1.7.2 1.2-.3 1-1-.1-.8.2-1.1.9-.7.8.5.8 1 0 1.8zm16.9 17.3c0 .2-.9 0-2-.6s-2-1.3-2-1.6c0-.2.9 0 2 .6s2 1.3 2 1.6zm15.4 3c.3.8.2 1.2-.4.9-.6-.3-1-1-1-1.6 0-1.4.7-1.1 1.4.7zm431.4 1.1c-1.2 1.5-2.2 1.8-1.4.4.4-.5 0-1.1-.6-1.4-.7-.3-.3-.4.9-.4 1.7.1 1.9.4 1.1 1.4zm-409.1.7c.5.4.1.6-.7.4-.9-.2-1.4.4-1.4 1.4.2 2.2-1.2 1.4-1.8-1-.4-1.3 0-1.8 1.3-1.7 1 .1 2.2.5 2.6.9zm-9.5 10.3c-.6.3-1 .9-.7 1.4.4.5-.2.6-1.1.2-1.6-.6-1.5-.7.1-2 1-.7 2.1-1 2.4-.7.3.4 0 .9-.7 1.1zm406.5.5c-.3.8-.6.5-.6-.6-.1-1.1.2-1.7.5-1.3.3.3.4 1.2.1 1.9zM130 551.5c0 .2-.6.8-1.3 1.4-1 .8-1.4.7-1.4-.2 0-.8.6-1.4 1.4-1.4.7 0 1.3.1 1.3.2zm11.3 10.4c.3 1.2 0 1.8-.7 1.5-.6-.2-1.2-1.3-1.2-2.4 0-2.3 1.2-1.7 1.9.9zm17.7 8.5c0 .3-.4.8-1 1.1-.5.3-1 .1-1-.4 0-.6.5-1.1 1-1.1.6 0 1 .2 1 .4zm334.3 7.9c-.4 1.4-2.2 4.2-2.3 3.4 0-.4.1-.9.3-1.2.1-.2-.6-1-1.6-1.8-1.7-1.2-1.6-1.3 1-1.2 1.5 0 2.7.3 2.6.8zm-288.2 1.4c1.3 1.6 1.2 1.7-.3.4-1.7-1.3-2.2-2.1-1.4-2.1.2 0 1 .8 1.7 1.7zm-18.6.3c-.3.5-1.6 1-2.8.9-2-.1-2-.2.3-.9 1.4-.4 2.6-.8 2.8-.9.2-.1 0 .3-.3.9zm64.5-.2c0 1.3-1.2 2.2-2.2 1.6-1-.6-.1-2.4 1.3-2.4.5 0 .9.4.9.8zm-52.9 2.5c-.6.8-.9 1.6-.6 1.9.3.2-.2.5-1 .5s-1.6-.6-1.9-1.3c-.3-.8 0-1.1 1-.7.7.3 1.4 0 1.4-.6s.5-1.1 1.1-1.1c.8 0 .9.4 0 1.3zm81.4 2.5c-.3.3-1.1 0-1.8-.7-.9-1-.8-1.1.6-.5 1 .3 1.5.9 1.2 1.2zm202.9-1c.2.4-.5.9-1.7.9-1.7.2-1.9 0-.7-.7 1.8-1.2 1.8-1.2 2.4-.2zM281 586.4c0 .2-.7.7-1.6 1-.8.3-1.2.2-.9-.4.6-1 2.5-1.4 2.5-.6zm4.1 2.1c.5-.4.6-1.2.3-1.8-.4-.8-.2-.7.7.1 1.2 1.1 1.2 1.4-.1 2.2-.8.5-1.3 1-1 1.1.3 0 1.3.2 2.3.4.9.2 1.7-.1 1.7-.6s.5-.9 1.1-.9c.8 0 .9.4 0 1.3-.6.8-.7 1.8-.3 2.3.4.4 0 .3-.8-.3s-1.8-1.1-2.2-1c-1.2.3-4.8-3.2-4.8-4.5 0-.7.5-.5 1.1.5.6.9 1.5 1.5 2 1.2zm188.6-.8c.3.7-.4 1.6-1.5 2.2-1.4.7-1.9.7-1.9-.4 0-.7.6-1.1 1.4-.8 1.5.6 1.8-1.3.3-2-.6-.3-.5-.4.2-.3.6.1 1.3.7 1.5 1.3zM293 592.1c0 .6.7.9 1.5.5.8-.3 1.8.2 2.3 1.1.6 1.1 1.1 1.2 1.6.4.4-.6 1.2-1.1 1.9-1.1.6 0 .2.6-.8 1.4-1.7 1.2-2.3 1.2-4.7 0-2.9-1.5-4.5-3.4-2.9-3.4.6 0 1.1.5 1.1 1.1zm169 1.9c0 .4-.7.7-1.5.6-2.3-.3-2.6-1.2-.5-1.3 1.1-.1 2 .2 2 .7zm-16 6.4c0-.7.8-1.5 1.7-1.8 1.4-.6 1.4-.4-.2 1.4-1.8 2-2 2-3.2.4-.7-1-1.3-2.3-1.3-2.8.1-.6.7 0 1.5 1.4s1.4 2 1.5 1.4zm-125.9.4c-.7.2-1.8-.1-2.3-.6-.8-.8-.4-.9 1.3-.5 1.3.4 1.8.8 1 1.1zm117.1 0c-.7.2-1 .8-.7 1.2 1 1.7-1.3 1.9-2.6.3-1-1.2-1-1.5-.1-.9.7.4 1.5.1 1.8-.8.3-.9 1.1-1.3 1.7-.9.8.5.7.8-.1 1.1zm-92.8 6.7c-.4.8-.8 1.5-1 1.5-.2 0-.4-.7-.4-1.5s.4-1.5 1-1.5c.5 0 .7.7.4 1.5zm23.1.5c.3.5.1 1-.4 1-.6 0-1.1-.5-1.1-1 0-.6.2-1 .4-1 .3 0 .8.4 1.1 1zm6 0c.3.5.1 1-.4 1-.6 0-1.1-.5-1.1-1 0-.6.2-1 .4-1 .3 0 .8.4 1.1 1zm25.5.5c.9-.5 1.1-.4.6.3-.4.7-.2 1.2.3 1.2.6 0 1.1-.5 1.1-1.1 0-.5.5-.7 1.1-.3.8.5.6 1-.5 1.6-1.8 1-5.6-.6-5.6-2.5 0-.8.3-.8.9.2.5.8 1.4 1 2.1.6zm-33.5 1.5c.4.7 1.3.6 2.6-.1 2.2-1.1 3.5-.7 2.5.9-.6 1-3.6.9-5.4-.2-.6-.4-1.7-.4-2.4 0s-.8.3-.4-.4c.9-1.5 2.3-1.5 3.1-.2z"/><path d="M381 87.5c0 .8.2 1.5.4 1.5s.6-.7 1-1.5c.3-.8.1-1.5-.4-1.5-.6 0-1 .7-1 1.5zm-44 .5c0 .5.5 1 1.1 1 .5 0 .7-.5.4-1-.3-.6-.8-1-1.1-1-.2 0-.4.4-.4 1zm46.5 0c-.3.5-.1 1 .4 1 .6 0 1.1-.5 1.1-1 0-.6-.2-1-.4-1-.3 0-.8.4-1.1 1zm30 0c.6.9.4 1.2-.7.8-.8-.4-1.5-.1-1.5.6 0 1.7 2.5 1.6 3.1 0 .3-.8 0-1.6-.6-2-.7-.5-.8-.2-.3.6zm3.5 0c0 .5.5 1 1.1 1 .5 0 .7-.5.4-1-.3-.6-.8-1-1.1-1-.2 0-.4.4-.4 1zm-10 1c0 1.3 1.8 2.2 2.4 1.1.3-.5-.1-1.1-.9-1.5-.8-.3-1.5-.1-1.5.4zm29.6 2.8c-.3.5.1.9.9.9s1.2-.4.9-.9c-.3-.4-.7-.8-.9-.8-.2 0-.6.4-.9.8zm-115.9 1.9c-1 .9-.9 2.3.1 2.3.5 0 .9-.7.9-1.5 0-1.7-.1-1.8-1-.8zm112.9.2c-.4.6-.6 1.1-.4 1.2 2.5.6 3.8.5 4.9-.3 1.1-.8 1.1-.9-.2-.5-.9.3-2.1.1-2.7-.5-.6-.6-1.2-.6-1.6.1zm-123.5 1.7c0 1.1.3 1.4.6.6.3-.7.2-1.6-.1-1.9-.3-.4-.6.2-.5 1.3zm-2.5.7c.3 1 .9 1.5 1.2 1.2.3-.3 0-1.1-.7-1.8-1-.9-1.1-.8-.5.6zM302 99c1.4.9.7 1.4-1.3 1.1-.5-.1-.6.3-.2.9.5.8 1.1.8 2.1-.1 1.5-1.2 1-2.9-.9-2.9-.7 0-.6.4.3 1zm-4.5 1c-.3.5-.1 1 .4 1 .6 0 1.1-.5 1.1-1 0-.6-.2-1-.4-1-.3 0-.8.4-1.1 1zm160.5-.6c0 .2.8 1 1.8 1.7 1.5 1.3 1.6 1.2.3-.4s-2.1-2.1-2.1-1.3zm9 4.3c0 .1.8.7 1.8 1.2 1.3.7 1.9.6 1.9-.2 0-.7-.9-1.3-1.9-1.3-1 0-1.8.1-1.8.3zm14 6.3c-.9.6-1 1-.3 1 .6 0 1.5-.5 1.8-1 .8-1.2.4-1.2-1.5 0zm-211.4 1.8c-.3.5.1.9.9.9s1.2-.4.9-.9c-.3-.4-.7-.8-.9-.8-.2 0-.6.4-.9.8zm212.4 1.7c-.7.8-.9 1.5-.6 1.5.4 0 1.4-.7 2.2-1.5.9-.8 1.1-1.5.6-1.5-.5 0-1.5.7-2.2 1.5zm11 5.7c-1 2.1-1 2.1.3.6.8-1 1.8-1.4 2.2-1 .5.4.5.1.1-.6-1-1.7-1.4-1.5-2.6 1zm-232 1.9c0 .5.5.7 1 .4.6-.3 1-.8 1-1.1 0-.2-.4-.4-1-.4-.5 0-1 .5-1 1.1zm-7.4 3.4c-.3.9-1 1.4-1.5 1-.5-.3-1.3 0-1.7.6-.4.7-.3.9.4.5.5-.3 1.2-.1 1.4.4.2.7.9.6 2-.2s1.5-1.8.9-2.6c-.7-1.1-.9-1-1.5.3zm-18.6 8.9c0 .2.7.7 1.6 1 .8.3 1.2.2.9-.4-.6-1-2.5-1.4-2.5-.6zm.5 4.3c.3 1.6 0 2-1.1 1.6-.8-.3-1.4 0-1.4.5 0 .6 1 .9 2.1.7 3-.6 3.1-.9 1.4-3.1-1.4-1.8-1.4-1.8-1 .3zm294.8 10.1c-.9 1.5-.8 1.9.3 1.9.8 0 1.2-.3.9-.5-.3-.3 0-1.1.6-1.9.6-.7.7-1.3.3-1.3-.5 0-1.4.8-2.1 1.8zm-308.3.1c0 .6.4 1.3 1 1.6.6.3.7-.1.4-.9-.7-1.8-1.4-2.1-1.4-.7zm311.5.2c-.4.6-.5 1.2-.2 1.5.2.3.7-.2 1-1.1.7-1.7.1-2-.8-.4zM215 155.5c0 .7 3 1.3 3.4.7.3-.4-.4-.9-1.5-.9-1-.1-1.9 0-1.9.2zm-18.4 21.2c-.6 1.4-.5 1.5.5.6.7-.7 1-1.5.7-1.8-.3-.3-.9.2-1.2 1.2zM569 206.1c0 .5.5.7 1 .4.6-.3 1-.8 1-1.1 0-.2-.4-.4-1-.4-.5 0-1 .5-1 1.1zm-13.1 13.7c-1.1 1.4-1.1 1.5 0 .5.7-.6 2-.9 2.7-.6.8.3 1.4.3 1.4 0 0-1.4-3-1.4-4.1.1zm-393.1 13.9c.7.3 1.6.2 1.9-.1.4-.3-.2-.6-1.3-.5-1.1 0-1.4.3-.6.6zm215.6 10.5c-1.9 2.3-1.9 2.3.2.5 1.1-.9 2.4-1.4 2.9-1 .4.5.5.2.1-.5-.9-1.6-1-1.6-3.2 1zm4.9-.5c0 .7.3 1.1.5.8.3-.3 1.2.1 2.1.8 1.4 1 1.4 1 .4-.4-.7-.9-1.1-1.8-.8-2.1.3-.2-.1-.5-.8-.5-.8 0-1.4.6-1.4 1.4zm13.7.1c0 1.4 2.9 3.6 3.7 2.8.3-.3.1-.6-.5-.6-.7 0-1.1-.5-.9-1.1.1-.6-.4-1.4-1-1.6-.7-.3-1.3 0-1.3.5zm-31.5 1.2c-.3.5-.1 1 .4 1 .6 0 1.1-.5 1.1-1 0-.6-.2-1-.4-1-.3 0-.8.4-1.1 1zm39 0c-.4.6-1.1.8-1.6.5-.5-.4-.9-.1-.9.4 0 1.6 1.6 1.3 3-.4.7-.8 1-1.5.7-1.5-.3 0-.9.5-1.2 1zm-248.2 1.5c-.3.9-.3 1.8-.1 2.1.3.3.8-.4 1.1-1.6.6-2.3-.1-2.7-1-.5zm199.8-.5c-2 1.2-2.3 4-.4 3.3 1.2-.5 1.2-.7.1-1.4-1-.7-.9-.9.5-.9.9 0 1.7.5 1.7 1.2 0 .6.3.9.6.5 1.2-1.1-1.1-3.6-2.5-2.7zm175.4 8.1c-.4.6-.5 1.2-.2 1.5.2.3.7-.2 1-1.1.7-1.7.1-2-.8-.4zm-4 5.9c-.3.5-.1 1 .4 1 .6 0 1.1-.5 1.1-1 0-.6-.2-1-.4-1-.3 0-.8.4-1.1 1zm-4.9 4.2c.3.4.9.8 1.5.8.5 0 .9-.4.9-.8 0-.5-.7-.9-1.5-.9s-1.2.4-.9.9zM342 270c0 .5.9.8 2 .7 2.1-.1 1.8-1-.5-1.3-.8-.1-1.5.2-1.5.6zm106.6-.2c-.3.5.1.9.9.9s1.2-.4.9-.9c-.3-.4-.7-.8-.9-.8-.2 0-.6.4-.9.8zm6.9 2.2c-.3.5-.1 1 .4 1 .6 0 1.1-.5 1.1-1 0-.6-.2-1-.4-1-.3 0-.8.4-1.1 1zm54.9 5.1c-.4.8-.3.9.5.5.8-.5 1 0 .7 1.9-.3 1.5-.2 2.5.1 2.1 1.1-1.1 1.3-4.5.4-5.1-.5-.3-1.3 0-1.7.6zm-170.2 5.1c-.7.7-1.2 1.7-1.2 2.2 0 .6.5.3 1.1-.7.6-.9 1.5-1.4 2.1-1.1.7.4.8.2.4-.4-.9-1.5-.9-1.5-2.4 0zm165.8.3c-1.1 1.3-1 1.4.5.9 1.3-.5 1.6-.4 1.1.4s-.2 1 .9.5c.9-.3 1.3-.9.8-1.2-.4-.3-1.1-1-1.4-1.4-.3-.4-1.2-.1-1.9.8zm-35.9 4.4c-.8.5-.9 1.1-.3 1.5.5.3 1.2-.1 1.6-.9.6-1.7.6-1.8-1.3-.6zm28.3 5.9c-1 1.5-.8 1.8 1.2 1.8 1.6 0 2-.3 1.4-1.1-.6-.7-.7-1.5-.3-1.8.3-.4.2-.7-.3-.7s-1.4.8-2 1.8zm-20.9 1.2c-.4.6-1 .8-1.4.6-.4-.3-.8.1-.8.9 0 1.1.5 1 2.4-.2 1.3-.8 2.3-1.7 2.3-1.9 0-.8-1.9-.3-2.5.6zm-145.1 2.5c.1.8.6 1.8 1.1 2.2.4.4.5.3.2-.4-.4-.6-.2-1.3.5-1.5.8-.3.6-.6-.4-1s-1.5-.2-1.4.7zm-189.3 2.1c.6.7 1.6 1.1 2.1.8 1.1-.7.3-1.7-1.8-2-1.2-.2-1.3.1-.3 1.2zm346.5 5.6c.3.5 1 .6 1.5.3 1.3-.9 1.1-1.2-.6-1.2-.8 0-1.2.4-.9.9zM139.3 328c-.1 1.1.3 2 .8 2 .6 0 .7.5.3 1.2-.4.7-.3.8.5.4.9-.6.9-1.1-.1-2.3-.7-.9-1.1-1.8-1-2 .2-.3.2-.6 0-.8-.2-.2-.4.5-.5 1.5zm214.3 4.7c-.6 1.4-.5 1.5.5.6.7-.7 1-1.5.7-1.8-.3-.3-.9.2-1.2 1.2zm-216.4 2.7c-.1 1.5.1 1.7.7.7.5-.7 1.5-1.7 2.2-2.2 1-.6.8-.8-.7-.7-1.2.1-2.1 1-2.2 2.2zm2.4 1.1c-.3.8-.2 2.2.1 3.2.5 1.2.3 1.4-.7.8-.8-.5-1.1-.4-.6.3.3.5.3 1.2-.1 1.5-.5.2-.2.2.5.1.6-.2 1.2.2 1.2.8 0 .9.3.9 1.1.1s.8-1.7 0-3c-.7-1.4-.7-2.3 0-3 .7-.7.7-1.3.1-1.7-.5-.3-1.2.1-1.6.9zm219.5-.3c-.1 1.2-.6 1.5-1.8 1.1-1-.3-1.5-.3-1.1.1.3.4 1.2.8 2 1 .7.1 1.9.6 2.7 1 .9.6 1.2.5.7-.2-.3-.5-.3-1.2.1-1.5.5-.2.3-.2-.4-.1-.6.2-1.4-.5-1.6-1.4-.4-1.6-.5-1.6-.6 0zm-220.3 9.6c.5.9.7 2.4.4 3.2-.2.8-.2 1.2.2.9 1.4-1.3 1.4-4.8 0-5.3-1.1-.4-1.2-.1-.6 1.2zm231.8 0c-.3.5.1.9.9.9s1.5-.4 1.5-.9c0-.4-.4-.8-.9-.8-.6 0-1.2.4-1.5.8zM137 354c0 .5.5 1 1.1 1 .5 0 .7-.5.4-1-.3-.6-.8-1-1.1-1-.2 0-.4.4-.4 1zm233.8 1.7c.7.3 1.6.2 1.9-.1.4-.3-.2-.6-1.3-.5-1.1 0-1.4.3-.6.6zm-2.8 2.8c-.6.8-.9 1.9-.5 2.5.4.6.2 1.7-.5 2.5-.8.9-.8 1.5 0 2 .6.3.8 1 .6 1.4-.3.4.1.8.8.8.8 0 1.2-.6.9-1.4-.3-.7-.9-1.3-1.5-1.3-.5 0-.6-.5-.3-1 .5-.8 1.2-.7 2.3.2 1.5 1.2 1.5 1.1.4-.4-1-1.2-1.1-2.2-.3-3.7.6-1.1 1.1-2.2 1.1-2.5 0-1.1-1.8-.6-3 .9zm1.3 1c-.3.9-.8 1.4-1 1.1-.3-.3-.2-.9.2-1.5.9-1.6 1.5-1.3.8.4zm-231.5.3c-.5 1.9-.4 2 1.3 1.1 1-.5 1.9-1.2 1.9-1.5 0-.3-.4-.3-.9 0-.5.4-1.1.1-1.3-.6-.3-.7-.7-.3-1 1zm1.4 3.1c-1.1.7-1.1.9 0 1.4.9.3 1.5-.1 1.5-.9s-.1-1.4-.1-1.4c-.1 0-.7.4-1.4.9zm227.4 14c1 1 2.1 1.7 2.3 1.5.6-.6-2-3.4-3.2-3.4-.6 0-.2.8.9 1.9zm-2.1 2c-.3.6.3 1.5 1.4 2 2.5 1.4 4.2 1.4 1.8 0-.9-.6-1.5-1.4-1.2-2 .4-.5.2-.9-.4-.9-.5 0-1.2.4-1.6.9zm0 5.1c-.3.5.1 1 .9 1 .9 0 1.6-.5 1.6-1 0-.6-.4-1-.9-1-.6 0-1.3.4-1.6 1zm2.1 3.7c-.6 1.4-.5 1.5.5.6.7-.7 1-1.5.7-1.8-.3-.3-.9.2-1.2 1.2zm-2.1 6.3c-.3.5-.1 1 .4 1 .6 0 1.1-.5 1.1-1 0-.6-.2-1-.4-1-.3 0-.8.4-1.1 1zm118.5 1.4c0 .2.8 1 1.8 1.7 1.5 1.3 1.6 1.2.3-.4s-2.1-2.1-2.1-1.3zm-119.5 6.5c-.6 1.1 1.3 2.6 2.2 1.7.4-.3.1-.6-.6-.6s-.9-.5-.6-1c.3-.6.4-1 .1-1-.3 0-.7.4-1.1.9zm111.1 4.3c.3.5 1 .6 1.5.3 1.3-.9 1.1-1.2-.6-1.2-.8 0-1.2.4-.9.9zm-.6 2.7c0 1 1.9 2.5 2.5 2 .1-.2-.3-1-1.1-1.7s-1.4-.8-1.4-.3zM121 410c-.9.6-1 1-.3 1 .6 0 1.5-.5 1.8-1 .8-1.2.4-1.2-1.5 0zm351 2c-.8.5-1 1-.5 1.1.6 0 1.8.2 2.8.4 1.5.3 1.6.1.6-1.1-1.4-1.6-1-1.6-2.9-.4zm-5 7.5c0 .9-.6 1.5-1.4 1.3-.8-.2-1.5 0-1.5.4-.1.5.1.8.4.8h1.5c.5 0 1.4-.9 2-2 .7-1.4.7-2 0-2-.5 0-1 .7-1 1.5zm-109.1-.2c-.6 2-.5 5.8.2 6.2.5.3.6 0 .3-.8s.2-2.1 1-3c1.4-1.3 1.4-1.6.1-2.1-.8-.3-1.5-.4-1.6-.3zm157.6.7c-.3.5-.1 1 .4 1 .6 0 1.1-.5 1.1-1 0-.6-.2-1-.4-1-.3 0-.8.4-1.1 1zm-423 4.1c-.4.6-.5 1.2-.2 1.5.2.3.7-.2 1-1.1.7-1.7.1-2-.8-.4zm259.9 2.7c-.5.4-1 1.4-1.2 2.2-.2 1.1.1 1 1.2-.3 1-1.3 1.5-1.4 1.8-.6.3.9.6 1 1.1.2.8-1.3-1.5-2.4-2.9-1.5zM90 428c0 .5.7.7 1.5.4.8-.4 1.5-.8 1.5-1 0-.2-.7-.4-1.5-.4s-1.5.4-1.5 1zm-14.3 3c.3 1.1.9 2.2 1.3 2.5.5.3.6-.4.3-1.5s-.9-2.2-1.3-2.5c-.5-.3-.6.4-.3 1.5zm4.6.5c0 .8.4 1.2.9.9.5-.3.6-1 .3-1.5-.9-1.3-1.2-1.1-1.2.6zm272.1-.7c-.9.5-.8 1 .1 1.9 1.1 1 1.3.9 1.2-.7-.1-1.1-.1-2-.2-2 0 0-.5.4-1.1.8zM65 434.1c0 .5.5.7 1 .4.6-.3 1-.8 1-1.1 0-.2-.4-.4-1-.4-.5 0-1 .5-1 1.1zm-3.5 1.9c-.3.5-.1 1 .4 1 .6 0 1.1-.5 1.1-1 0-.6-.2-1-.4-1-.3 0-.8.4-1.1 1zm476 6.1c-.8 1.2 0 2.2 2 2.5.8.1 1.3-.2.9-.7-.3-.5-1-.6-1.6-.3-.7.5-.9.1-.5-.9.7-1.9.2-2.3-.8-.6zM347.2 446c0 .3-.1.7-.2 1-1.4 3.7.6 5.4 4.5 3.9 1.7-.6 1.7-.8.3-.8-1.2-.1-1.6-.6-1.1-1.9.5-1.4.3-1.3-1 .3-1.4 1.8-1.6 1.8-1.3.2.1-1 .9-2.3 1.7-2.7 1-.7.8-.9-.8-.7-1.2 0-2.1.4-2.1.7zm67.8 2c0 .5.5 1.2 1 1.5.6.4.8 1.1.5 1.6-.3.5.1.6.9.3 2-.8 2-.6-.4-2.7-1.1-.9-2-1.3-2-.7zm-364.4 4.2c1 1.4 2.1 2.4 2.3 2.2.3-.3-.6-1.5-1.8-2.7l-2.4-2.2 1.9 2.7zm360.7-.9c.1.5-.4 1.2-1.2 1.5-.8.2-1.1 0-.8-.5.3-.5 0-1-.7-1-1.1 0-1.2.4-.3 1.8.8 1.3 1.5 1.5 2.4.8.7-.6 1.8-.7 2.4-.3.8.5.9.3.4-.6-.4-.7-.2-1.6.6-2.1 1-.6.8-.8-.8-.6-1.2 0-2.1.5-2 1zm-19.6 1.4c-1 .9-.9 2.3.1 2.3.5 0 .9-.7.9-1.5 0-1.7-.1-1.8-1-.8zm-6.1 1.6c.3 1 .9 1.5 1.2 1.2.3-.3 0-1.1-.7-1.8-1-.9-1.1-.8-.5.6zm20-.4c-.4.5-.2 1.2.3 1.5.5.4 1.2.2 1.5-.3.4-.5.2-1.2-.3-1.5-.5-.4-1.2-.2-1.5.3zm-11.7 1.8c-1.3 1.7-1.3 1.7.6.3 1.1-.8 2.2-1.6 2.4-1.7.2-.2 0-.3-.6-.3s-1.7.8-2.4 1.7zm164.7 10.1c-.3.5.1.9.9.9s1.2-.4.9-.9c-.3-.4-.7-.8-.9-.8-.2 0-.6.4-.9.8zM57.5 468c-.3.5-.1 1 .4 1 .6 0 1.1-.5 1.1-1 0-.6-.2-1-.4-1-.3 0-.8.4-1.1 1zm2.1 1.9c-1.9.7-1.9.8 0 1.3 1.3.3 2.1 0 2.1-.8s-.1-1.4-.1-1.3c-.1 0-1 .4-2 .8zm515.9 30.2c-.4.6-.5 1.2-.2 1.5.2.3.7-.2 1-1.1.7-1.7.1-2-.8-.4zm-497.4 3.5c0 1.1.3 1.4.6.6.3-.7.2-1.6-.1-1.9-.3-.4-.6.2-.5 1.3zm485.1 10.9c.4.4.3 1.4-.4 2.2-.6.7-.9 1.5-.7 1.8.3.2 1-.4 1.7-1.5.9-1.5.9-2.1-.1-2.6-.6-.4-.9-.4-.5.1zm-3.9 6.7c-.2 1.8 0 2 .7.8 1.2-1.8 1.3-3 .2-3-.4 0-.9 1-.9 2.2zm-463.2.7c-1 .6-.9 1 .3 1.4.8.3 1.8.2 2.1-.3.8-1.3-.9-2-2.4-1.1zm26.3 10c-.3.3-1.5.6-2.6.6-1.2 0-2.2.6-2.4 1.3-.2.8-.1.9.3.1s1.1-.3 2 1.2l1.4 2.4-.7-2.5c-.6-2.3-.6-2.4 1.1-1 1.5 1.2 1.7 1.2 1 .1-.6-1.1-.3-1.3 1.2-.9 1.1.3 2 0 2-.7 0-1.2-2.2-1.6-3.3-.6zM115 536c0 .5.5 1 1.1 1 .5 0 .7-.5.4-1-.3-.6-.8-1-1.1-1-.2 0-.4.4-.4 1zm418 11.4c0 .3.9 1 2 1.6 1.1.6 2 .8 2 .6 0-.3-.9-1-2-1.6-1.1-.6-2-.8-2-.6zM123.5 550c.3.5.8 1 1.1 1 .2 0 .4-.5.4-1 0-.6-.5-1-1.1-1-.5 0-.7.4-.4 1zm406.2.8c-.9 1-1.4 2.2-1 2.5.9.9 3.4-1.3 2.7-2.4-.3-.5-.1-.9.5-.9.5 0 1.2.5 1.4 1 .3.6.4.5.3-.2-.4-2-2.1-2-3.9 0zm-397.3 8.5l-1.9 2.2 2.2-1.8c2-1.8 2.2-1.8 3.2 0 .6 1 1.1 1.3 1.1.7 0-.6-.6-1.7-1.3-2.3-1.1-.8-1.8-.6-3.3 1.2zm10.9 8.2c0 .8.4 1.2.9.9.4-.3.8-.9.8-1.5 0-.5-.4-.9-.8-.9-.5 0-.9.7-.9 1.5zm366.1-.4c-1.1 1.8 1.1 3.2 2.5 1.6.9-1.2.8-1.6-.3-2-.9-.4-1.8-.1-2.2.4zM151 569.8c0 1.5 2.8 2.3 3.6.9.4-.7.4-.9-.1-.5-.4.4-1.4.3-2.2-.3-.8-.7-1.3-.8-1.3-.1zm-1.7 2.7c0 .8.4 1.2.9.9.5-.3.6-1 .3-1.5-.9-1.3-1.2-1.1-1.2.6zm17.7 9.6c0 .5.5.7 1 .4.6-.3 1-.8 1-1.1 0-.2-.4-.4-1-.4-.5 0-1 .5-1 1.1zm10.1.6c.7 1 1.5 2 1.6 2.2.2.2.3-.3.3-1.1 0-.9-.7-1.9-1.6-2.2-1.5-.6-1.5-.4-.3 1.1zm40.9-1.3c0 .4.6 1.4 1.4 2.1 1.2 1.2 1.5 1.2 2-.2.4-.9.4-1.8.1-2.1-.3-.3-.5 0-.5.8 0 1-.3 1-1.5 0-.8-.7-1.5-.9-1.5-.6zm17.6 1.9c.3 1 .9 1.5 1.2 1.2.3-.3 0-1.1-.7-1.8-1-.9-1.1-.8-.5.6zm36-.3c.6.8 1.3 2.2 1.6 3 .3.9.7 1 1.1.3.4-.6-.3-1.9-1.6-2.9-1.2-1.1-1.7-1.2-1.1-.4zm-87 1.5c-.9 2.6-.7 3.2.5 1.2.6-1 .9-2.1.6-2.3-.2-.3-.7.2-1.1 1.1zm31.1-.8c-.4.3-.7 1.1-.7 1.7 0 .6.5.5 1.2-.2.6-.6.9-1.4.7-1.7-.3-.3-.9-.2-1.2.2zm260.8 3.3c-.3.5-.1 1 .4 1 .6 0 1.1-.5 1.1-1 0-.6-.2-1-.4-1-.3 0-.8.4-1.1 1zm2.5 1c0 .5.5 1 1 1 .6 0 1-.5 1-1 0-.6-.4-1-1-1-.5 0-1 .4-1 1zm-12.9 6.7c-.1 1.7 1.6 2.5 2.5 1.2.4-.7.3-.9-.4-.5-.5.3-1.3 0-1.5-.6-.4-.9-.6-1-.6-.1zm-163.4 3.2c.3 1.2.9 2.1 1.4 2.1 1.4 0 1.1-1.6-.5-2.9-1.2-1-1.3-.8-.9.8zm149.2-.3c-.7.8-.6 1.4.2 2 .8.4.9.3.5-.4s-.1-1.2.8-1.2c.8 0 1.7-.4 2-.8.8-1.4-2.3-1-3.5.4zm-143.2 3.8c-.3.7.1 1.3.9 1.3s1.4-.5 1.4-1.1c0-.6.5-.4 1.1.4.8 1.2 1 1.2.7.1-.5-1.8-3.5-2.3-4.1-.7zm-7.7 0c0 .2.7.7 1.6 1 .8.3 1.2.2.9-.4-.6-1-2.5-1.4-2.5-.6zm4 .6c0 .5.5 1 1.1 1 .5 0 .7-.5.4-1-.3-.6-.8-1-1.1-1-.2 0-.4.4-.4 1zm9.6-.1c-.8 1.2.4 4.1 1.6 4.1.6 0 .5-.6-.2-1.5-.6-.8-.9-1.9-.5-2.5.3-.5.4-1 .1-1-.3 0-.7.4-1 .9zm127 2.7c-.5 1.4-.4 1.5.9.4 1.7-1.4 1.9-2 .6-2-.5 0-1.2.7-1.5 1.6zm-107.3 1.6c-.4.7-.8 2.2-1 3.3-.1 1.1.1 1.4.4.7.4-1 .8-1 1.9-.1.8.6 1.4.8 1.4.4s-.8-1.4-1.7-2.2c-1.7-1.4-1.7-1.4 0-.9.9.3 1.7.1 1.7-.4 0-1.5-1.8-2.1-2.7-.8zm-9.2 1.4c0 1.1.3 1.4.6.6.3-.7.2-1.6-.1-1.9-.3-.4-.6.2-.5 1.3zm33.5 4.2c-.3.5.1.9.9.9s1.2-.4.9-.9c-.3-.4-.7-.8-.9-.8-.2 0-.6.4-.9.8zm56.2-.1c.7.3 1.6.2 1.9-.1.4-.3-.2-.6-1.3-.5-1.1 0-1.4.3-.6.6zm-41.1 1c-.4.3-.7 1.1-.7 1.7 0 .6.5.5 1.2-.2.6-.6.9-1.4.7-1.7-.3-.3-.9-.2-1.2.2zm5.1 0c.6.2 1 .8.8 1.2-.3.4.4.7 1.5.7 1.9 0 1.9-.1.3-1.3-1-.7-2.3-1.3-2.8-1.2-.6 0-.5.3.2.6z"/></svg>